<?xml version="1.0" encoding="UTF-8" standalone="no"?>
<!DOCTYPE svg PUBLIC "-//W3C//DTD SVG 1.1//EN" "http://www.w3.org/Graphics/SVG/1.1/DTD/svg11.dtd">
<svg width="100%" height="100%" viewBox="0 0 50 50" version="1.1" xmlns="http://www.w3.org/2000/svg" xmlns:xlink="http://www.w3.org/1999/xlink" xml:space="preserve" xmlns:serif="http://www.serif.com/" style="fill-rule:evenodd;clip-rule:evenodd;stroke-linejoin:round;stroke-miterlimit:2;">
    <g transform="matrix(0.0976563,0,0,0.0882332,0,2.06222)">
        <g transform="matrix(1,0,0,1.1068,2.84217e-14,-23.3724)">
            <path d="M256,233.5C254.596,233.5 253.224,233.636 251.891,233.883L183.245,114.986C181.175,111.398 176.586,110.17 173,112.24C169.413,114.311 168.184,118.898 170.255,122.485L238.907,241.393C235.54,245.327 233.5,250.428 233.5,255.999C233.5,265.776 239.771,274.113 248.5,277.209L248.5,444.5C248.5,448.643 251.857,452 256,452C260.143,452 263.5,448.643 263.5,444.5L263.5,277.21C272.229,274.114 278.5,265.777 278.5,256C278.5,243.594 268.406,233.5 256,233.5ZM256,263.5C251.864,263.5 248.5,260.136 248.5,256C248.5,251.864 251.864,248.5 256,248.5C260.136,248.5 263.5,251.864 263.5,256C263.5,260.136 260.136,263.5 256,263.5Z" style="fill:rgb(20,160,189);fill-rule:nonzero;"/>
        </g>
        <g transform="matrix(1,0,0,1.1068,2.84217e-14,-23.3724)">
            <path d="M437.02,74.98C388.668,26.629 324.38,0 256,0C187.62,0 123.332,26.629 74.98,74.98C26.628,123.331 0,187.62 0,256C0,324.38 26.629,388.668 74.98,437.02C123.331,485.372 187.62,512 256,512C324.38,512 388.668,485.371 437.02,437.02C485.372,388.669 512,324.38 512,256C512,187.62 485.371,123.332 437.02,74.98ZM256,497C123.112,497 15,388.888 15,256C15,123.112 123.112,15 256,15C388.888,15 497,123.112 497,256C497,388.888 388.888,497 256,497Z" style="fill:rgb(20,160,189);fill-rule:nonzero;"/>
        </g>
        <g transform="matrix(1,0,0,1.1068,2.84217e-14,-23.3724)">
            <circle cx="256" cy="67.5" r="7.5" style="fill:rgb(20,160,189);"/>
        </g>
        <g transform="matrix(1,0,0,1.1068,2.84217e-14,-23.3724)">
            <circle cx="161.75" cy="92.75" r="7.5" style="fill:rgb(20,160,189);"/>
        </g>
        <g transform="matrix(1,0,0,1.1068,2.84217e-14,-23.3724)">
            <circle cx="92.75" cy="161.75" r="7.5" style="fill:rgb(20,160,189);"/>
        </g>
        <g transform="matrix(1,0,0,1.1068,2.84217e-14,-23.3724)">
            <circle cx="67.5" cy="256" r="7.5" style="fill:rgb(20,160,189);"/>
        </g>
        <g transform="matrix(1,0,0,1.1068,2.84217e-14,-23.3724)">
            <circle cx="92.75" cy="350.25" r="7.5" style="fill:rgb(20,160,189);"/>
        </g>
        <g transform="matrix(1,0,0,1.1068,2.84217e-14,-23.3724)">
            <circle cx="161.75" cy="419.25" r="7.5" style="fill:rgb(20,160,189);"/>
        </g>
        <g transform="matrix(1,0,0,1.1068,2.84217e-14,-23.3724)">
            <circle cx="350.25" cy="419.25" r="7.5" style="fill:rgb(20,160,189);"/>
        </g>
        <g transform="matrix(1,0,0,1.1068,2.84217e-14,-23.3724)">
            <circle cx="419.25" cy="350.25" r="7.5" style="fill:rgb(20,160,189);"/>
        </g>
        <g transform="matrix(1,0,0,1.1068,2.84217e-14,-23.3724)">
            <circle cx="444.5" cy="256" r="7.5" style="fill:rgb(20,160,189);"/>
        </g>
        <g transform="matrix(1,0,0,1.1068,2.84217e-14,-23.3724)">
            <circle cx="419.25" cy="161.75" r="7.5" style="fill:rgb(20,160,189);"/>
        </g>
        <g transform="matrix(1,0,0,1.1068,2.84217e-14,-23.3724)">
            <circle cx="350.25" cy="92.75" r="7.5" style="fill:rgb(20,160,189);"/>
        </g>
        <g transform="matrix(1,0,0,1.1068,2.84217e-14,-23.3724)">
            <path d="M415.806,96.194C373.12,53.508 316.366,30 256,30C201.389,30 148.665,49.748 107.542,85.604C104.42,88.327 104.096,93.064 106.817,96.186C109.54,99.309 114.278,99.632 117.399,96.91C155.791,63.436 205.013,45 256,45C372.346,45 467,139.654 467,256C467,372.346 372.346,467 256,467C139.654,467 45,372.346 45,256C45,205.013 63.436,155.791 96.91,117.399C99.633,114.277 99.308,109.54 96.186,106.817C93.066,104.095 88.328,104.418 85.604,107.542C49.748,148.665 30,201.389 30,256C30,316.366 53.508,373.12 96.194,415.806C138.88,458.492 195.634,482 256,482C316.366,482 373.12,458.492 415.806,415.806C458.492,373.12 482,316.366 482,256C482,195.634 458.492,138.88 415.806,96.194Z" style="fill:rgb(20,160,189);fill-rule:nonzero;"/>
        </g>
    </g>
</svg>
