<?xml version="1.0" encoding="UTF-8" standalone="no"?>
<!DOCTYPE svg PUBLIC "-//W3C//DTD SVG 1.1//EN" "http://www.w3.org/Graphics/SVG/1.1/DTD/svg11.dtd">
<svg width="100%" height="100%" viewBox="0 0 50 50" version="1.1" xmlns="http://www.w3.org/2000/svg" xmlns:xlink="http://www.w3.org/1999/xlink" xml:space="preserve" xmlns:serif="http://www.serif.com/" style="fill-rule:evenodd;clip-rule:evenodd;stroke-linejoin:round;stroke-miterlimit:2;">
    <g transform="matrix(0.0917969,0,0,0.0917969,1.5,1.5)">
        <g transform="matrix(1.06383,0,0,1.06383,-16.3404,-16.3404)">
            <path d="M483.738,0L28.238,0C12.641,0.008 -0.004,12.66 0,28.262L0,483.762C0.008,499.359 12.66,512.004 28.262,512L483.738,512C499.344,512.004 511.996,499.355 512,483.75L512,28.238C511.992,12.641 499.34,-0.004 483.738,0Z" style="fill:rgb(20,160,189);fill-rule:nonzero;"/>
        </g>
        <g transform="matrix(1.06383,0,0,1.06383,-16.3404,-16.3404)">
            <path d="M353.5,512L353.5,314L420.25,314L430.25,236.5L353.5,236.5L353.5,187.141C353.5,164.754 359.715,149.5 391.816,149.5L432.5,149.5L432.5,80.371C425.422,79.43 401.137,77.324 372.879,77.324C313.879,77.324 273.5,113.324 273.5,179.465L273.5,236.5L207,236.5L207,314L273.5,314L273.5,512L353.5,512Z" style="fill:white;fill-rule:nonzero;"/>
        </g>
    </g>
</svg>
