<?xml version="1.0" encoding="UTF-8" standalone="no"?>
<!DOCTYPE svg PUBLIC "-//W3C//DTD SVG 1.1//EN" "http://www.w3.org/Graphics/SVG/1.1/DTD/svg11.dtd">
<svg width="100%" height="100%" viewBox="0 0 50 50" version="1.1" xmlns="http://www.w3.org/2000/svg" xmlns:xlink="http://www.w3.org/1999/xlink" xml:space="preserve" xmlns:serif="http://www.serif.com/" style="fill-rule:evenodd;clip-rule:evenodd;stroke-linejoin:round;stroke-miterlimit:2;">
    <g transform="matrix(0.104167,0,0,0.104167,3.10862e-15,3.10862e-15)">
        <path d="M240,104C209.072,104 184,129.072 184,160C184,190.928 209.072,216 240,216C270.913,215.965 295.965,190.913 296,160C296,129.072 270.928,104 240,104ZM240,200C217.909,200 200,182.091 200,160C200,137.909 217.909,120 240,120C262.08,120.026 279.974,137.92 280,160C280,182.091 262.091,200 240,200Z" style="fill:white;fill-rule:nonzero;"/>
    </g>
    <g transform="matrix(0.104167,0,0,0.104167,3.10862e-15,3.10862e-15)">
        <path d="M240,0C151.634,0 80,71.634 80,160C80,245.392 227.08,467.04 233.344,476.44C234.828,478.665 237.326,480 240,480C242.674,480 245.172,478.665 246.656,476.44C252.92,467.04 400,245.392 400,160C400,71.634 328.366,0 240,0ZM240,457.384C210.84,412.408 96,230.72 96,160C96.093,80.509 160.509,16.093 240,16C319.491,16.093 383.907,80.509 384,160C384,230.704 269.16,412.408 240,457.384Z" style="fill:white;fill-rule:nonzero;"/>
    </g>
    <path d="M15.395,6.106C15.87,5.923 16.386,5.824 16.925,5.824C19.298,5.824 21.225,7.751 21.225,10.124C21.225,10.995 21.041,11.992 20.779,12.779C20.856,12.547 20.984,11.115 20.984,11.115C20.984,11.115 20.153,14.328 19.74,14.741C18.5,15.981 16.947,16.365 15.497,16.06L15.273,16.007C15.059,16.04 14.84,16.057 14.616,16.057C12.243,16.057 10.316,14.13 10.316,11.757C10.316,10.098 11.453,8.387 12.775,7.329C12.72,7.373 12.552,7.522 12.552,7.522C12.552,7.522 14.426,6.291 15.395,6.106ZM20.303,11.082L20.363,11.356C20.363,11.356 20.341,11.249 20.303,11.082Z"/>
    <path d="M21.03,1.808C21.496,1.668 22.012,1.59 22.434,1.379C22.967,1.113 25.263,0.933 25.263,0.933C25.263,0.933 25.092,0.925 25.033,0.925L26.61,0.925C27.403,0.925 28.407,0.857 29.175,1.028C30.001,1.211 30.817,1.452 31.348,1.717C32.009,2.048 33.014,3.134 33.45,3.628L33.514,3.677C33.602,3.749 33.69,3.821 33.779,3.893L34.045,4.125C35.578,5.113 37.386,6.916 38.226,8.595C38.795,9.733 39.028,11.101 39.577,12.199C39.883,12.81 40.318,13.552 40.543,14.226C40.876,15.227 40.932,16.52 40.932,17.613C40.932,18.219 40.95,19.029 40.804,19.613C40.33,21.509 38.949,23.323 37.797,24.984C37.652,25.408 36.87,26.731 36.87,26.731C36.87,26.731 37.303,26.055 37.325,26.011C37.115,26.431 36.88,26.79 36.568,27.156C36.372,27.724 36.156,28.224 35.956,28.423C36.161,28.219 36.667,27.488 36.75,27.158C36.61,27.716 36.212,28.8 35.87,29.409C35.748,29.881 35.576,30.466 35.411,30.797C35.08,31.459 34.674,32.128 34.367,32.723C34.137,33.413 33.563,35.011 32.97,35.776C33.098,35.619 33.23,35.442 33.23,35.442C33.23,35.442 32.765,36.195 32.383,36.712C32.343,37.321 32.259,38.194 32.097,38.68C31.85,39.419 31.585,40.244 31.192,40.865C30.942,41.393 30.635,41.965 30.382,42.218C30.247,42.354 30.088,42.524 29.925,42.698L29.836,42.903C29.622,43.331 29.154,43.837 28.753,44.224C28.702,44.282 28.626,44.368 28.58,44.414C28.522,44.473 28.432,44.55 28.344,44.622C27.783,45.159 26.823,46.004 26.111,46.241C23.973,46.954 22.649,46.148 21.751,45.323C21.417,45.017 21.096,44.116 20.85,43.244C20.653,42.643 20.507,41.986 20.408,41.456L20.347,41.238C20.322,41.136 20.297,41.034 20.271,40.931L20.238,40.779C20.082,40.466 19.949,40.128 19.845,39.768C19.804,39.626 19.767,39.478 19.737,39.327C19.2,38.861 18.781,38.265 18.529,37.589L18.499,37.522C18.473,37.457 18.447,37.391 18.42,37.326L18.302,36.987L18.178,36.893C17.623,36.449 16.846,35.382 16.613,35.032C15.922,33.995 15.228,32.925 14.66,31.871C14.422,31.43 14.233,30.482 14.145,29.717C13.71,29.173 13.344,28.624 13.135,28.207C12.704,27.344 12.461,26.306 12.231,25.359C12.127,25.186 11.991,24.955 11.926,24.829C11.766,24.521 11.582,23.885 11.472,23.466L11.244,23.01L11.418,23.263L11.367,23.061C11.382,23.102 11.397,23.144 11.412,23.185L11.475,23.346C11.624,23.56 11.809,23.814 11.914,23.919C11.666,23.671 11.368,22.999 11.118,22.336C10.597,21.504 10.198,20.371 9.938,19.331C9.865,19.039 9.791,18.762 9.692,18.466C9.533,17.987 9.43,16.918 9.43,16.918C9.43,16.918 9.567,17.662 9.738,18.121C9.541,17.59 9.427,16.693 9.367,16.03C9.24,15.642 9.146,13.972 9.146,13.972C9.146,13.972 9.134,14.236 9.134,14.291C9.134,13.376 9.26,12.009 9.644,11.241C10.069,10.393 10.559,9.524 10.996,8.651C11.095,8.452 11.282,8.19 11.472,7.948C11.878,7.138 12.468,6.438 13.208,5.849C13.721,5.441 14.352,5.111 14.874,4.779C15.175,4.54 15.826,4.036 16.184,3.857C16.282,3.808 16.408,3.759 16.545,3.713C17.243,3.23 18.065,2.775 18.718,2.449C19.294,2.161 20.729,1.867 21.03,1.808ZM28.641,44.329C28.324,44.631 28.073,44.837 28.073,44.837C28.073,44.837 28.206,44.736 28.344,44.622L28.534,44.438L28.641,44.329L28.753,44.224L28.805,44.163L28.641,44.329ZM20.625,41.446C20.8,41.825 21.001,42.2 21.194,42.425C21.07,42.269 20.953,42.032 20.847,41.749L20.822,41.719L20.625,41.446ZM31.229,40.789C31.427,40.407 31.672,39.772 31.672,39.772C31.672,39.772 31.483,40.247 31.229,40.789ZM24.727,11.878C24.508,11.977 24.015,12.203 23.747,12.337C23.239,12.591 22.357,12.841 21.763,12.994C21.536,13.298 21.185,13.747 20.923,14.009C20.271,14.661 20.099,15.399 20.099,16.43C20.099,16.723 20.085,17.489 20.085,17.489C20.085,17.489 19.979,17.075 19.877,16.801C20.177,17.661 20.262,19.881 20.262,19.881C20.262,19.881 20.268,19.748 20.268,19.696L20.27,20.106C20.374,20.203 20.477,20.308 20.578,20.423C21.559,20.605 22.468,21.126 23.12,21.924C23.289,21.897 23.502,21.876 23.763,21.873L23.9,21.854C24.04,21.789 24.177,21.735 24.302,21.699C24.842,21.545 25.902,21.396 25.902,21.396C25.902,21.396 25.769,21.43 25.703,21.454C25.88,21.39 26.272,21.314 26.648,21.252C26.889,20.987 27.19,20.707 27.472,20.46L27.627,20.24C27.709,20.124 27.792,20.008 27.874,19.891L28.09,19.577C28.321,19.165 28.675,18.588 28.974,18.288L29.41,17.847C29.518,17.544 29.677,17.121 29.802,16.872C29.855,16.765 29.965,16.58 30.066,16.416C30.09,16.186 30.055,15.931 29.971,15.763C29.749,15.319 29.554,14.597 29.448,14.148L29.407,14.092C28.873,13.846 27.923,13.383 27.415,12.986C26.987,12.78 26.524,12.522 26.213,12.251L25.254,11.933L24.922,11.904C24.863,11.896 24.804,11.889 24.746,11.881L24.727,11.878ZM10.95,21.879C10.729,21.261 10.574,20.75 10.574,20.75C10.574,20.75 10.747,21.348 10.95,21.879ZM28.073,19.607C27.972,19.767 27.832,20.044 27.832,20.044C27.832,20.044 27.926,19.86 28.073,19.607ZM19.876,16.796C19.855,16.738 19.834,16.686 19.814,16.647L19.876,16.796ZM28.608,13.519C28.792,13.675 29.084,13.86 29.334,14.007C29.271,13.936 29.204,13.869 29.135,13.805L28.895,13.696C28.785,13.637 28.8,13.646 28.683,13.574L28.608,13.519ZM27.533,13.044C27.626,13.101 27.718,13.149 27.783,13.182C27.993,13.287 28.489,13.449 28.489,13.449C28.489,13.449 28.052,13.289 27.533,13.044ZM27.272,12.864L27.212,12.807C27.229,12.826 27.25,12.845 27.272,12.864Z" style="fill:white;"/>
    <path d="M27.664,45.428L27.664,44.977C27.664,43.432 26.409,42.177 24.864,42.177C23.319,42.177 22.064,43.432 22.064,44.977L22.064,45.428C22.064,46.973 23.319,48.228 24.864,48.228C26.409,48.228 27.664,46.973 27.664,45.428Z" style="fill:white;"/>
    <path d="M22.242,44.447L22.233,44.077C22.233,42.531 23.488,41.277 25.033,41.277C26.578,41.277 27.833,42.531 27.833,44.077C27.833,44.546 27.862,45.174 27.765,45.655C27.618,46.376 27.287,46.965 26.844,47.408C25.751,48.501 23.977,48.501 22.884,47.408C22.084,46.608 21.87,45.443 22.242,44.447Z" style="fill:white;"/>
</svg>
