<?xml version="1.0" encoding="UTF-8" standalone="no"?>
<!DOCTYPE svg PUBLIC "-//W3C//DTD SVG 1.1//EN" "http://www.w3.org/Graphics/SVG/1.1/DTD/svg11.dtd">
<svg width="100%" height="100%" viewBox="0 0 596 842" version="1.1" xmlns="http://www.w3.org/2000/svg" xmlns:xlink="http://www.w3.org/1999/xlink" xml:space="preserve" xmlns:serif="http://www.serif.com/" style="fill-rule:evenodd;clip-rule:evenodd;stroke-linejoin:round;stroke-miterlimit:2;">
    <g transform="matrix(0.39156,0,0,0.518667,15.8571,76.8333)">
        <g id="layer1">
            <g id="g50">
                <g id="g6">
                    <g id="g4">
                        <path id="path2" d="M1394.65,668.976L56.693,668.976C25.381,668.976 0,694.358 0,725.669C0,756.981 25.381,782.362 56.693,782.362L1394.65,782.362C1425.96,782.362 1451.34,756.981 1451.34,725.669C1451.34,694.358 1425.96,668.976 1394.65,668.976Z" style="fill-rule:nonzero;"/>
                    </g>
                </g>
                <g id="g12">
                    <g id="g10">
                        <path id="path8" d="M1394.65,215.433L56.693,215.433C25.381,215.433 0,240.814 0,272.126C0,303.437 25.381,328.819 56.693,328.819L1394.65,328.819C1425.96,328.819 1451.34,303.437 1451.34,272.126C1451.34,240.814 1425.96,215.433 1394.65,215.433Z" style="fill-rule:nonzero;"/>
                    </g>
                </g>
                <g id="g18">
                    <g id="g16">
                        <path id="path14" d="M1394.65,1122.52L56.693,1122.52C25.381,1122.52 0,1147.9 0,1179.21C0,1210.52 25.381,1235.91 56.693,1235.91L1394.65,1235.91C1425.96,1235.91 1451.34,1210.52 1451.34,1179.21C1451.34,1147.9 1425.96,1122.52 1394.65,1122.52Z" style="fill-rule:nonzero;"/>
                    </g>
                </g>
            </g>
        </g>
    </g>
</svg>
