<?xml version="1.0" encoding="UTF-8" standalone="no"?>
<!DOCTYPE svg PUBLIC "-//W3C//DTD SVG 1.1//EN" "http://www.w3.org/Graphics/SVG/1.1/DTD/svg11.dtd">
<svg width="100%" height="100%" viewBox="0 0 200 200" version="1.1" xmlns="http://www.w3.org/2000/svg" xmlns:xlink="http://www.w3.org/1999/xlink" xml:space="preserve" xmlns:serif="http://www.serif.com/" style="fill-rule:evenodd;clip-rule:evenodd;stroke-linejoin:round;stroke-miterlimit:2;">
    <g transform="matrix(0.390625,0,0,0.390625,-4.44089e-15,-4.44089e-15)">
        <g transform="matrix(0.98,0,0,0.98,5.12,5.12)">
            <path d="M477.858,8.533L34.142,8.533C15.317,8.533 0,23.851 0,42.675L0,324.266C0,328.976 3.823,332.799 8.533,332.799L503.466,332.799C508.176,332.799 511.999,328.976 511.999,324.266L511.999,42.675C512,23.851 496.683,8.533 477.858,8.533ZM494.933,315.733L17.067,315.733L17.067,42.675C17.067,33.254 24.73,25.6 34.142,25.6L477.858,25.6C487.27,25.6 494.933,33.254 494.933,42.675L494.933,315.733Z" style="fill:rgb(20,160,189);fill-rule:nonzero;"/>
        </g>
        <g transform="matrix(0.98,0,0,0.98,5.12,5.12)">
            <path d="M503.467,315.733L8.533,315.733C3.823,315.733 0,319.556 0,324.266L0,366.924C0,385.749 15.317,401.066 34.142,401.066L477.858,401.066C496.683,401.066 512,385.749 512,366.924L512,324.266C512,319.556 508.177,315.733 503.467,315.733ZM494.933,366.925C494.933,376.346 487.27,384 477.858,384L34.142,384C24.73,384 17.067,376.346 17.067,366.925L17.067,332.8L494.934,332.8L494.934,366.925L494.933,366.925Z" style="fill:rgb(20,160,189);fill-rule:nonzero;"/>
        </g>
        <g transform="matrix(0.98,0,0,0.98,5.12,5.12)">
            <path d="M281.6,349.867L230.4,349.867C225.69,349.867 221.867,353.69 221.867,358.4C221.867,363.11 225.69,366.933 230.4,366.933L281.6,366.933C286.31,366.933 290.133,363.11 290.133,358.4C290.133,353.69 286.31,349.867 281.6,349.867Z" style="fill:rgb(20,160,189);fill-rule:nonzero;"/>
        </g>
        <g transform="matrix(0.98,0,0,0.98,5.12,5.12)">
            <path d="M469.333,42.667L42.667,42.667C37.957,42.667 34.134,46.49 34.134,51.2L34.134,324.267C34.134,328.977 37.957,332.8 42.667,332.8L469.334,332.8C474.044,332.8 477.867,328.977 477.867,324.267L477.867,51.2C477.867,46.49 474.044,42.667 469.333,42.667ZM460.8,315.733L51.2,315.733L51.2,59.733L460.8,59.733L460.8,315.733Z" style="fill:rgb(20,160,189);fill-rule:nonzero;"/>
        </g>
        <g transform="matrix(0.98,0,0,0.98,5.12,5.12)">
            <path d="M366.933,452.267L145.067,452.267C130.953,452.267 119.467,463.753 119.467,477.867C119.467,491.981 130.953,503.467 145.067,503.467L366.934,503.467C381.048,503.467 392.534,491.981 392.534,477.867C392.534,463.753 381.047,452.267 366.933,452.267ZM366.933,486.4L145.067,486.4C140.357,486.4 136.534,482.569 136.534,477.867C136.534,473.165 140.357,469.334 145.067,469.334L366.934,469.334C371.644,469.334 375.467,473.165 375.467,477.867C375.467,482.569 371.644,486.4 366.933,486.4Z" style="fill:rgb(20,160,189);fill-rule:nonzero;"/>
        </g>
        <g transform="matrix(0.98,0,0,0.98,5.12,5.12)">
            <path d="M349.867,452.267C321.553,452.267 307.2,432.171 307.2,392.534C307.2,387.824 303.377,384.001 298.667,384.001L213.334,384.001C208.624,384.001 204.801,387.824 204.801,392.534C204.801,432.171 190.448,452.267 162.134,452.267C157.424,452.267 153.601,456.09 153.601,460.8C153.601,465.51 157.424,469.333 162.134,469.333L349.867,469.333C354.577,469.333 358.4,465.51 358.4,460.8C358.4,456.09 354.577,452.267 349.867,452.267ZM203.699,452.267C214.204,440.628 220.39,423.296 221.636,401.067L290.372,401.067C291.609,423.296 297.796,440.628 308.309,452.267L203.699,452.267Z" style="fill:rgb(20,160,189);fill-rule:nonzero;"/>
        </g>
        <g transform="matrix(0.98,0,0,0.98,5.12,5.12)">
            <path d="M407.757,259.959L387.158,239.36L398.618,227.9C400.743,225.775 401.596,222.686 400.862,219.776C400.128,216.866 397.918,214.562 395.042,213.692L309.709,188.092C306.697,187.187 303.446,188.015 301.227,190.234C299,192.453 298.181,195.712 299.085,198.716L324.685,284.049C325.547,286.933 327.859,289.143 330.769,289.877C333.67,290.594 336.768,289.757 338.893,287.633L350.959,275.558L371.558,296.166C373.154,297.77 375.33,298.666 377.591,298.666C379.852,298.666 382.028,297.77 383.624,296.166L407.756,272.025C411.093,268.689 411.093,263.296 407.757,259.959ZM377.591,278.067L358.835,259.302C356.659,257.126 353.809,256.042 350.959,256.042C348.1,256.042 345.25,257.134 343.083,259.293L336.922,265.454L319.983,208.989L376.448,225.928L369.843,232.533C368.025,234.359 367.027,236.783 367.027,239.36C367.027,241.946 368.034,244.386 369.86,246.195L389.657,265.992L377.591,278.067Z" style="fill:rgb(20,160,189);fill-rule:nonzero;"/>
        </g>
        <g transform="matrix(0.98,0,0,0.98,5.12,5.12)">
            <path d="M358.4,76.8L119.467,76.8C114.757,76.8 110.934,80.623 110.934,85.333L110.934,128C110.934,132.71 114.757,136.533 119.467,136.533L358.4,136.533C363.11,136.533 366.933,132.71 366.933,128L366.933,85.333C366.933,80.623 363.11,76.8 358.4,76.8ZM349.867,119.467L128,119.467L128,93.867L349.867,93.867L349.867,119.467Z" style="fill:rgb(20,160,189);fill-rule:nonzero;"/>
        </g>
        <g transform="matrix(0.98,0,0,0.98,5.12,5.12)">
            <path d="M221.867,170.667L153.6,170.667C148.89,170.667 145.067,174.49 145.067,179.2L145.067,213.333C145.067,218.043 148.89,221.866 153.6,221.866L221.867,221.866C226.577,221.866 230.4,218.043 230.4,213.333L230.4,179.2C230.4,174.49 226.577,170.667 221.867,170.667ZM213.333,204.8L162.133,204.8L162.133,187.733L213.333,187.733L213.333,204.8Z" style="fill:rgb(20,160,189);fill-rule:nonzero;"/>
        </g>
        <g transform="matrix(0.98,0,0,0.98,5.12,5.12)">
            <path d="M358.4,76.8L119.467,76.8C114.757,76.8 110.934,80.623 110.934,85.333L110.934,247.466C110.934,252.176 114.757,255.999 119.467,255.999L322.612,255.999C325.317,255.999 327.851,254.728 329.456,252.56C331.069,250.393 331.564,247.594 330.787,245.008L319.984,208.989L355.952,219.784C358.538,220.561 361.337,220.066 363.495,218.453C365.662,216.849 366.934,214.306 366.934,211.609L366.934,85.333C366.933,80.623 363.11,76.8 358.4,76.8ZM349.867,200.141L309.7,188.092C306.688,187.187 303.437,188.015 301.218,190.234C298.991,192.461 298.172,195.712 299.076,198.725L311.142,238.934L128,238.934L128,93.867L349.867,93.867L349.867,200.141Z" style="fill:rgb(20,160,189);fill-rule:nonzero;"/>
        </g>
    </g>
</svg>
