<svg viewBox="0 0 200 200" xmlns="http://www.w3.org/2000/svg" fill-rule="evenodd" clip-rule="evenodd" stroke-linejoin="round" stroke-miterlimit="2"><path d="M110.383 100l85.363-84.93a7.629 7.629 0 000-10.827c-3.006-2.99-7.878-2.99-10.883 0L99.5 89.173 14.137 4.243c-3.005-2.99-7.878-2.99-10.883 0a7.63 7.63 0 000 10.827L88.617 100 3.254 184.93a7.629 7.629 0 000 10.828A7.692 7.692 0 008.696 198c1.97 0 3.939-.747 5.441-2.242l85.363-84.93 85.362 84.93a7.692 7.692 0 005.442 2.242c1.97 0 3.939-.747 5.442-2.242a7.629 7.629 0 000-10.828L110.383 100z" fill-rule="nonzero"/></svg>