<svg viewBox="0 0 50 50" xmlns="http://www.w3.org/2000/svg" fill-rule="evenodd" clip-rule="evenodd" stroke-linejoin="round" stroke-miterlimit="2"><path d="M25 22.803a2.2 2.2 0 00-.401.037l-6.704-11.61a.732.732 0 00-1.269.731l6.705 11.613A2.187 2.187 0 0022.803 25a2.2 2.2 0 001.465 2.071v16.337a.732.732 0 101.464 0V27.071a2.2 2.2 0 001.465-2.07A2.2 2.2 0 0025 22.802zm0 2.93a.733.733 0 11.002-1.467.733.733 0 01-.002 1.466z" fill="#14a0bd" fill-rule="nonzero"/><path d="M42.678 7.322A24.837 24.837 0 0025 0C18.322 0 12.044 2.6 7.322 7.322 2.6 12.044 0 18.322 0 25c0 6.678 2.6 12.956 7.322 17.678C12.044 47.4 18.322 50 25 50c6.678 0 12.956-2.6 17.678-7.322C47.4 37.956 50 31.678 50 25c0-6.678-2.6-12.956-7.322-17.678zM25 48.535C12.023 48.535 1.465 37.977 1.465 25S12.023 1.465 25 1.465 48.535 12.023 48.535 25 37.977 48.535 25 48.535z" fill="#14a0bd" fill-rule="nonzero"/><circle cx="256" cy="67.5" r="7.5" fill="#14a0bd" transform="scale(.09766)"/><circle cx="161.75" cy="92.75" r="7.5" fill="#14a0bd" transform="scale(.09766)"/><circle cx="92.75" cy="161.75" r="7.5" fill="#14a0bd" transform="scale(.09766)"/><circle cx="67.5" cy="256" r="7.5" fill="#14a0bd" transform="scale(.09766)"/><circle cx="92.75" cy="350.25" r="7.5" fill="#14a0bd" transform="scale(.09766)"/><circle cx="161.75" cy="419.25" r="7.5" fill="#14a0bd" transform="scale(.09766)"/><circle cx="350.25" cy="419.25" r="7.5" fill="#14a0bd" transform="scale(.09766)"/><circle cx="419.25" cy="350.25" r="7.5" fill="#14a0bd" transform="scale(.09766)"/><circle cx="444.5" cy="256" r="7.5" fill="#14a0bd" transform="scale(.09766)"/><circle cx="419.25" cy="161.75" r="7.5" fill="#14a0bd" transform="scale(.09766)"/><circle cx="350.25" cy="92.75" r="7.5" fill="#14a0bd" transform="scale(.09766)"/><path d="M40.606 9.394A21.926 21.926 0 0025 2.93a22.056 22.056 0 00-14.498 5.43.733.733 0 00.963 1.104A20.592 20.592 0 0125 4.394c11.362 0 20.605 9.244 20.605 20.606 0 11.362-9.243 20.606-20.605 20.606S4.395 36.362 4.395 25c0-4.98 1.8-9.786 5.069-13.535a.732.732 0 10-1.104-.963A22.056 22.056 0 002.93 25a21.926 21.926 0 006.464 15.606A21.926 21.926 0 0025 47.07a21.926 21.926 0 0015.606-6.464A21.926 21.926 0 0047.07 25a21.926 21.926 0 00-6.464-15.606z" fill="#14a0bd" fill-rule="nonzero"/></svg>