<svg viewBox="0 0 50 50" xmlns="http://www.w3.org/2000/svg" fill-rule="evenodd" clip-rule="evenodd" stroke-linejoin="round" stroke-miterlimit="2"><path d="M47.24 0H2.758A2.76 2.76 0 000 2.76v44.482A2.76 2.76 0 002.76 50h44.48A2.76 2.76 0 0050 47.241V2.758A2.76 2.76 0 0047.24 0z" fill="#14a0bd" fill-rule="nonzero"/><path d="M34.522 50V30.664h6.518l.977-7.568h-7.495v-4.82c0-2.187.606-3.676 3.741-3.676h3.973V7.849c-.69-.092-3.062-.298-5.822-.298-5.762 0-9.705 3.516-9.705 9.975v5.57h-6.494v7.568h6.494V50h7.813z" fill="#fff" fill-rule="nonzero"/></svg>