<svg viewBox="0 0 50 50" xmlns="http://www.w3.org/2000/svg" fill-rule="evenodd" clip-rule="evenodd" stroke-linejoin="round" stroke-miterlimit="2"><path d="M45.833 0H4.167A4.126 4.126 0 000 4.167v41.666A4.126 4.126 0 004.167 50h41.666A4.126 4.126 0 0050 45.833V4.167A4.126 4.126 0 0045.833 0zM25 48.333V31.667h-6.667V25H25v-5.833c0-4.75 3.667-8.75 8.333-9.167h7.5v6.667h-6.666c-1.417 0-2.5 1.083-2.5 2.5V25H40v6.667h-8.333v16.666H25zm23.333-2.5c0 1.417-1.083 2.5-2.5 2.5h-12.5v-15h8.334v-10h-8.334v-4.166c0-.5.334-.834.834-.834H42.5v-10h-9.25c-5.583.5-9.917 5.25-9.917 10.834v4.166h-6.666v10h6.666v15H4.167c-1.417 0-2.5-1.083-2.5-2.5V4.167c0-1.417 1.083-2.5 2.5-2.5h41.666c1.417 0 2.5 1.083 2.5 2.5v41.666z" fill="#14a0bd" fill-rule="nonzero"/></svg>