<?xml version="1.0" encoding="UTF-8" standalone="no"?>
<!DOCTYPE svg PUBLIC "-//W3C//DTD SVG 1.1//EN" "http://www.w3.org/Graphics/SVG/1.1/DTD/svg11.dtd">
<svg width="100%" height="100%" viewBox="0 0 480 480" version="1.1" xmlns="http://www.w3.org/2000/svg" xmlns:xlink="http://www.w3.org/1999/xlink" xml:space="preserve" xmlns:serif="http://www.serif.com/" style="fill-rule:evenodd;clip-rule:evenodd;stroke-linejoin:round;stroke-miterlimit:2;">
    <g>
        <g>
            <g>
                <path d="M240,0C142.798,0 64,78.798 64,176C64,270.576 226.896,468.712 233.832,477.096C235.352,478.935 237.614,480 240,480C242.386,480 244.648,478.935 246.168,477.096C253.104,468.712 416,270.576 416,176C416,78.798 337.202,0 240,0ZM240,459.288C209.896,421.712 80,254.976 80,176C80.101,87.676 151.677,16.101 240,16C328.324,16.101 399.899,87.676 400,176C400,254.96 270.104,421.704 240,459.288Z" style="fill:rgb(20,160,189);fill-rule:nonzero;"/>
                <path d="M348.88,145.664L244.88,65.664C242.003,63.45 237.997,63.45 235.12,65.664L131.12,145.664C127.621,148.361 126.971,153.385 129.668,156.884C131.182,158.848 133.52,159.999 136,160L160,160L160,248C160,252.418 163.582,256 168,256L312,256C316.418,256 320,252.418 320,248L320,160L344,160C348.418,159.998 351.998,156.414 351.996,151.996C351.995,149.516 350.844,147.178 348.88,145.664ZM256,240L224,240L224,192L256,192L256,240ZM312,144C307.582,144 304,147.582 304,152L304,240L272,240L272,184C272,179.582 268.418,176 264,176L216,176C211.582,176 208,179.582 208,184L208,240L176,240L176,152C176,147.582 172.418,144 168,144L159.52,144L240,82.096L320.48,144L312,144Z" style="fill:rgb(20,160,189);fill-rule:nonzero;"/>
            </g>
        </g>
    </g>
</svg>
