<svg viewBox="0 0 50 50" xmlns="http://www.w3.org/2000/svg" fill-rule="evenodd" clip-rule="evenodd" stroke-linejoin="round" stroke-miterlimit="2"><path d="M25 10.833A5.833 5.833 0 1025 22.5a5.84 5.84 0 005.833-5.833A5.833 5.833 0 0025 10.833zm0 10a4.167 4.167 0 110-8.333 4.167 4.167 0 010 8.333z" fill="#fff" fill-rule="nonzero"/><path d="M25 0C15.795 0 8.333 7.462 8.333 16.667c0 8.895 15.321 31.983 15.974 32.962a.833.833 0 001.386 0c.653-.979 15.974-24.067 15.974-32.962C41.667 7.462 34.205 0 25 0zm0 47.644c-3.037-4.685-15-23.61-15-30.977.01-8.28 6.72-14.99 15-15 8.28.01 14.99 6.72 15 15 0 7.365-11.962 26.292-15 30.977z" fill="#fff" fill-rule="nonzero"/><path d="M15.395 6.106a4.302 4.302 0 015.83 4.018c0 .871-.184 1.868-.446 2.655.077-.232.205-1.664.205-1.664s-.831 3.213-1.244 3.626c-1.24 1.24-2.793 1.624-4.243 1.319l-.224-.053a4.305 4.305 0 01-4.957-4.25c0-1.659 1.137-3.37 2.459-4.428-.055.044-.223.193-.223.193s1.874-1.231 2.843-1.416zm4.908 4.976l.06.274s-.022-.107-.06-.274z"/><path d="M21.03 1.808c.466-.14.982-.218 1.404-.429.533-.266 2.829-.446 2.829-.446s-.171-.008-.23-.008h1.577c.793 0 1.797-.068 2.565.103.826.183 1.642.424 2.173.689.661.331 1.666 1.417 2.102 1.911l.064.049.265.216.266.232c1.533.988 3.341 2.791 4.181 4.47.569 1.138.802 2.506 1.351 3.604.306.611.741 1.353.966 2.027.333 1.001.389 2.294.389 3.387 0 .606.018 1.416-.128 2-.474 1.896-1.855 3.71-3.007 5.371-.145.424-.927 1.747-.927 1.747s.433-.676.455-.72c-.21.42-.445.779-.757 1.145-.196.568-.412 1.068-.612 1.267.205-.204.711-.935.794-1.265-.14.558-.538 1.642-.88 2.251-.122.472-.294 1.057-.459 1.388-.331.662-.737 1.331-1.044 1.926-.23.69-.804 2.288-1.397 3.053a11.4 11.4 0 00.26-.334s-.465.753-.847 1.27c-.04.609-.124 1.482-.286 1.968-.247.739-.512 1.564-.905 2.185-.25.528-.557 1.1-.81 1.353-.135.136-.294.306-.457.48l-.089.205c-.214.428-.682.934-1.083 1.321a5.017 5.017 0 01-.173.19 3.255 3.255 0 01-.236.208c-.561.537-1.521 1.382-2.233 1.619-2.138.713-3.462-.093-4.36-.918-.334-.306-.655-1.207-.901-2.079a14.473 14.473 0 01-.442-1.788l-.061-.218-.076-.307-.033-.152a5.999 5.999 0 01-.501-1.452 4.286 4.286 0 01-1.208-1.738l-.03-.067-.079-.196-.118-.339-.124-.094c-.555-.444-1.332-1.511-1.565-1.861-.691-1.037-1.385-2.107-1.953-3.161-.238-.441-.427-1.389-.515-2.154-.435-.544-.801-1.093-1.01-1.51-.431-.863-.674-1.901-.904-2.848-.104-.173-.24-.404-.305-.53-.16-.308-.344-.944-.454-1.363l-.228-.456.174.253-.051-.202.045.124.063.161c.149.214.334.468.439.573-.248-.248-.546-.92-.796-1.583-.521-.832-.92-1.965-1.18-3.005a11.276 11.276 0 00-.246-.865c-.159-.479-.262-1.548-.262-1.548s.137.744.308 1.203c-.197-.531-.311-1.428-.371-2.091-.127-.388-.221-2.058-.221-2.058s-.012.264-.012.319c0-.915.126-2.282.51-3.05.425-.848.915-1.717 1.352-2.59a4.67 4.67 0 01.476-.703c.406-.81.996-1.51 1.736-2.099.513-.408 1.144-.738 1.666-1.07.301-.239.952-.743 1.31-.922.098-.049.224-.098.361-.144.698-.483 1.52-.938 2.173-1.264.576-.288 2.011-.582 2.312-.641zm7.611 42.521c-.317.302-.568.508-.568.508s.133-.101.271-.215l.19-.184.107-.109.112-.105.052-.061-.164.166zm-8.016-2.883c.175.379.376.754.569.979-.124-.156-.241-.393-.347-.676l-.025-.03-.197-.273zm10.604-.657c.198-.382.443-1.017.443-1.017s-.189.475-.443 1.017zm-6.502-28.911c-.219.099-.712.325-.98.459-.508.254-1.39.504-1.984.657-.227.304-.578.753-.84 1.015-.652.652-.824 1.39-.824 2.421 0 .293-.014 1.059-.014 1.059s-.106-.414-.208-.688c.3.86.385 3.08.385 3.08s.006-.133.006-.185l.002.41c.104.097.207.202.308.317.981.182 1.89.703 2.542 1.501.169-.027.382-.048.643-.051l.137-.019c.14-.065.277-.119.402-.155.54-.154 1.6-.303 1.6-.303s-.133.034-.199.058c.177-.064.569-.14.945-.202.241-.265.542-.545.824-.792l.155-.22.247-.349.216-.314c.231-.412.585-.989.884-1.289l.436-.441c.108-.303.267-.726.392-.975.053-.107.163-.292.264-.456.024-.23-.011-.485-.095-.653-.222-.444-.417-1.166-.523-1.615l-.041-.056c-.534-.246-1.484-.709-1.992-1.106-.428-.206-.891-.464-1.202-.735l-.959-.318-.332-.029-.176-.023-.019-.003zM10.95 21.879c-.221-.618-.376-1.129-.376-1.129s.173.598.376 1.129zm17.123-2.272c-.101.16-.241.437-.241.437s.094-.184.241-.437zm-8.197-2.811a1.353 1.353 0 00-.062-.149l.062.149zm8.732-3.277c.184.156.476.341.726.488a2.92 2.92 0 00-.199-.202l-.24-.109c-.11-.059-.095-.05-.212-.122l-.075-.055zm-1.075-.475c.093.057.185.105.25.138.21.105.706.267.706.267s-.437-.16-.956-.405zm-.261-.18l-.06-.057a.663.663 0 00.06.057z" fill="#fff"/><path d="M27.664 45.428v-.451c0-1.545-1.255-2.8-2.8-2.8a2.802 2.802 0 00-2.8 2.8v.451c0 1.545 1.255 2.8 2.8 2.8s2.8-1.255 2.8-2.8z" fill="#fff"/><path d="M22.242 44.447l-.009-.37a2.801 2.801 0 015.6 0c0 .469.029 1.097-.068 1.578a3.408 3.408 0 01-.921 1.753 2.801 2.801 0 01-4.602-2.961z" fill="#fff"/></svg>