<?xml version="1.0" encoding="UTF-8" standalone="no"?>
<!DOCTYPE svg PUBLIC "-//W3C//DTD SVG 1.1//EN" "http://www.w3.org/Graphics/SVG/1.1/DTD/svg11.dtd">
<svg width="100%" height="100%" viewBox="0 0 50 50" version="1.1" xmlns="http://www.w3.org/2000/svg" xmlns:xlink="http://www.w3.org/1999/xlink" xml:space="preserve" xmlns:serif="http://www.serif.com/" style="fill-rule:evenodd;clip-rule:evenodd;stroke-linejoin:round;stroke-miterlimit:2;">
    <g transform="matrix(0.0976563,0,0,0.0882332,0,2.41221)">
        <g>
            <path d="M502.76,78.63L9.24,78.63C4.136,78.63 0,82.767 0,87.87L0,424.132C0,429.235 4.136,433.372 9.24,433.372L398.339,433.372C403.443,433.372 407.579,429.235 407.579,424.132C407.579,419.029 403.443,414.892 398.339,414.892L33.864,414.892L201.632,268.278L249.919,310.477C251.66,311.999 253.831,312.76 256,312.76C258.17,312.76 260.339,312 262.081,310.477L310.372,268.274L478.144,414.891L433.451,414.891C428.347,414.891 424.211,419.028 424.211,424.131C424.211,429.234 428.347,433.371 433.451,433.371L502.76,433.371C507.864,433.371 512,429.234 512,424.131L512,87.87C512,82.766 507.864,78.63 502.76,78.63ZM493.52,403.787L324.414,256.003L472.837,126.292C476.68,122.934 477.071,117.096 473.714,113.254C470.354,109.411 464.518,109.018 460.676,112.377L256,291.247L140.001,189.872C136.158,186.515 130.324,186.907 126.963,190.749C123.605,194.592 123.998,200.429 127.84,203.787L187.591,256.005L18.48,403.793L18.48,108.217L99.039,178.618C100.792,180.149 102.959,180.901 105.117,180.901C107.691,180.901 110.252,179.832 112.078,177.741C115.436,173.898 115.043,168.061 111.201,164.703L33.856,97.11L493.52,97.11L493.52,403.787Z" style="fill:rgb(20,160,189);fill-rule:nonzero;"/>
        </g>
    </g>
</svg>
