<svg viewBox="0 0 50 50" xmlns="http://www.w3.org/2000/svg" fill-rule="evenodd" clip-rule="evenodd" stroke-linejoin="round" stroke-miterlimit="2"><path d="M49.098 9.35H.902c-.498 0-.902.365-.902.815v29.67c0 .45.404.815.902.815H38.9c.499 0 .903-.365.903-.815 0-.45-.404-.816-.903-.816H3.307l16.384-12.936 4.715 3.724a.96.96 0 00.594.201.958.958 0 00.594-.201l4.716-3.724 16.384 12.936h-4.365c-.498 0-.902.365-.902.816 0 .45.404.815.902.815h6.769c.498 0 .902-.365.902-.815v-29.67c0-.45-.404-.815-.902-.815zm-.903 28.69L31.681 25l14.495-11.445a.762.762 0 00.085-1.15.97.97 0 00-1.273-.077L25 28.11l-11.328-8.945a.971.971 0 00-1.273.078.762.762 0 00.085 1.15L18.32 25 1.805 38.04V11.96l7.867 6.212a.958.958 0 00.593.202.944.944 0 00.68-.28.762.762 0 00-.086-1.15l-7.553-5.963h44.89V38.04z" fill="#14a0bd" fill-rule="nonzero"/></svg>