<svg viewBox="0 0 50 50" xmlns="http://www.w3.org/2000/svg" fill-rule="evenodd" clip-rule="evenodd" stroke-linejoin="round" stroke-miterlimit="2"><path fill="#fff" d="M2 11h46v29.024H2z"/><path d="M48.134 9.976H1.866c-.478 0-.866.35-.866.783V39.24c0 .433.388.783.866.783h36.478c.479 0 .867-.35.867-.783 0-.432-.388-.782-.867-.782H4.174l15.729-12.42 4.527 3.575a.92.92 0 00.57.194.92.92 0 00.57-.194l4.527-3.574 15.729 12.419h-4.19c-.478 0-.866.35-.866.782 0 .432.388.783.866.783h6.498c.478 0 .866-.35.866-.783V10.76c0-.433-.388-.783-.866-.783zm-.866 27.542L31.414 25l13.914-10.987a.731.731 0 00.083-1.104.932.932 0 00-1.223-.074L25 27.985 14.125 19.4a.932.932 0 00-1.222.074.731.731 0 00.082 1.104L18.587 25 2.733 37.52V12.482l7.552 5.963a.92.92 0 00.57.194c.241 0 .481-.09.652-.268a.731.731 0 00-.082-1.104L4.174 11.54h43.094v25.977z" fill="#14a0bd" fill-rule="nonzero"/></svg>