<svg viewBox="0 0 596 842" xmlns="http://www.w3.org/2000/svg" fill-rule="evenodd" clip-rule="evenodd" stroke-linejoin="round" stroke-miterlimit="2"><path d="M561.946 423.81H38.056c-12.26 0-22.199 13.164-22.199 29.404 0 16.24 9.938 29.405 22.199 29.405h523.89c12.26 0 22.198-13.165 22.198-29.405 0-16.24-9.938-29.405-22.198-29.405zm0-235.239H38.056c-12.26 0-22.199 13.165-22.199 29.405 0 16.24 9.938 29.405 22.199 29.405h523.89c12.26 0 22.198-13.165 22.198-29.405 0-16.24-9.938-29.405-22.198-29.405zm0 470.476H38.056c-12.26 0-22.199 13.164-22.199 29.404 0 16.24 9.938 29.408 22.199 29.408h523.89c12.26 0 22.198-13.169 22.198-29.408 0-16.24-9.938-29.404-22.198-29.404z" fill-rule="nonzero"/></svg>