<?xml version="1.0" encoding="UTF-8" standalone="no"?>
<!DOCTYPE svg PUBLIC "-//W3C//DTD SVG 1.1//EN" "http://www.w3.org/Graphics/SVG/1.1/DTD/svg11.dtd">
<svg width="100%" height="100%" viewBox="0 0 50 50" version="1.1" xmlns="http://www.w3.org/2000/svg" xmlns:xlink="http://www.w3.org/1999/xlink" xml:space="preserve" xmlns:serif="http://www.serif.com/" style="fill-rule:evenodd;clip-rule:evenodd;stroke-linejoin:round;stroke-miterlimit:2;">
    <g transform="matrix(0.121892,0,0,0.129896,0,-1.64171)">
        <g>
            <g>
                <path d="M126.02,209.9L95.1,209.9C68.397,209.966 46.766,231.597 46.7,258.3L46.7,273.8C46.7,276.727 49.073,279.1 52,279.1L169.16,279.1C172.087,279.078 174.442,276.687 174.42,273.76L174.42,258.3C174.354,231.597 152.723,209.966 126.02,209.9ZM163.82,268.46L57.3,268.46L57.3,258.3C57.409,237.469 74.269,220.609 95.1,220.5L126.02,220.5C146.851,220.609 163.711,237.469 163.82,258.3L163.82,268.46Z" style="fill:rgb(20,160,189);fill-rule:nonzero;"/>
                <path d="M358.26,257.38L216.26,257.38C213.589,257.544 211.46,259.674 211.296,262.344C211.116,265.266 213.339,267.78 216.26,267.96L358.26,267.96C360.931,267.796 363.06,265.666 363.224,262.996C363.404,260.074 361.182,257.56 358.26,257.38Z" style="fill:rgb(20,160,189);fill-rule:nonzero;"/>
                <path d="M135.48,192.38L135.8,192.08C135.804,192.076 135.808,192.072 135.813,192.067C149.751,178.122 149.746,155.518 135.8,141.58C129.116,134.868 120.033,131.096 110.56,131.1C101.234,131.096 92.279,134.751 85.62,141.28L85.3,141.58C85.296,141.584 85.292,141.588 85.287,141.593C71.349,155.538 71.354,178.142 85.3,192.08C99.115,205.923 121.501,206.057 135.48,192.38ZM92.84,149.1L93.1,148.84C102.958,139.336 118.604,139.451 128.32,149.1L128.38,149.08C138.189,158.896 138.189,174.804 128.38,184.62L128.12,184.88C118.26,194.429 102.569,194.322 92.84,184.64C83.031,174.824 83.031,158.916 92.84,149.1Z" style="fill:rgb(20,160,189);fill-rule:nonzero;"/>
                <path d="M374.9,57.38L35.3,57.38C15.827,57.435 0.055,73.207 0,92.68L0,317.52C0.055,336.993 15.827,352.765 35.3,352.82L374.9,352.82C394.373,352.765 410.145,336.993 410.2,317.52L410.2,92.68C410.145,73.207 394.373,57.435 374.9,57.38ZM399.62,317.52C399.576,331.154 388.534,342.196 374.9,342.24L35.3,342.24C21.666,342.196 10.624,331.154 10.58,317.52L10.58,92.68C10.624,79.046 21.666,68.004 35.3,67.96L374.9,67.96C388.534,68.004 399.576,79.046 399.62,92.68L399.62,317.52Z" style="fill:rgb(20,160,189);fill-rule:nonzero;"/>
                <path d="M358.26,142.26L216.26,142.26C213.589,142.424 211.46,144.554 211.295,147.225C211.115,150.147 213.338,152.661 216.26,152.84L358.26,152.84C360.931,152.676 363.06,150.546 363.225,147.875C363.404,144.954 361.182,142.44 358.26,142.26Z" style="fill:rgb(20,160,189);fill-rule:nonzero;"/>
                <path d="M358.26,199.82L216.26,199.82C213.589,199.984 211.46,202.114 211.295,204.785C211.115,207.707 213.338,210.221 216.26,210.4L358.26,210.4C360.931,210.236 363.06,208.106 363.225,205.435C363.404,202.514 361.182,200 358.26,199.82Z" style="fill:rgb(20,160,189);fill-rule:nonzero;"/>
                <path d="M358.26,171.04L216.26,171.04C213.589,171.204 211.46,173.334 211.295,176.005C211.115,178.927 213.338,181.441 216.26,181.62L358.26,181.62C360.931,181.456 363.06,179.326 363.225,176.655C363.404,173.734 361.182,171.22 358.26,171.04Z" style="fill:rgb(20,160,189);fill-rule:nonzero;"/>
                <path d="M358.26,228.6L216.26,228.6C213.589,228.764 211.46,230.894 211.296,233.564C211.116,236.486 213.339,239 216.26,239.18L358.26,239.18C360.931,239.016 363.06,236.886 363.224,234.216C363.404,231.294 361.182,228.78 358.26,228.6Z" style="fill:rgb(20,160,189);fill-rule:nonzero;"/>
            </g>
        </g>
    </g>
</svg>
