<svg viewBox="0 0 50 50" xmlns="http://www.w3.org/2000/svg" fill-rule="evenodd" clip-rule="evenodd" stroke-linejoin="round" stroke-miterlimit="2"><g fill="#14a0bd" fill-rule="nonzero"><path d="M15.36 25.623h-3.768c-3.255.009-5.892 2.819-5.9 6.287v2.014c0 .38.29.688.646.688H20.62c.357-.003.644-.313.641-.693V31.91c-.008-3.468-2.644-6.278-5.9-6.287zm4.608 7.607H6.984v-1.32c.014-2.705 2.069-4.895 4.608-4.91h3.769c2.539.015 4.594 2.205 4.607 4.91v1.32zm23.701-1.44H26.36c-.325.022-.585.299-.605.646-.022.38.25.706.605.73h17.31c.326-.022.585-.299.605-.646.022-.38-.249-.706-.605-.73zm-27.155-8.442l.039-.04.002-.001c1.698-1.811 1.698-4.748-.002-6.558-.815-.872-1.922-1.362-3.077-1.361a4.205 4.205 0 00-3.04 1.322l-.039.039-.001.002c-1.7 1.811-1.699 4.747.001 6.558 1.684 1.798 4.413 1.815 6.117.039zm-5.198-5.622l.032-.034c1.202-1.235 3.109-1.22 4.293.034l.007-.003c1.196 1.275 1.196 3.342 0 4.617l-.031.033c-1.202 1.24-3.115 1.227-4.3-.03-1.196-1.276-1.196-3.342 0-4.617z"/><path d="M45.697 5.812H4.303C1.929 5.819.007 7.868 0 10.397v29.206c.007 2.53 1.93 4.578 4.303 4.585h41.394c2.374-.007 4.296-2.056 4.303-4.585V10.397c-.007-2.53-1.93-4.578-4.303-4.585zm3.013 33.79c-.005 1.772-1.35 3.206-3.013 3.212H4.303c-1.662-.006-3.008-1.44-3.013-3.211V10.397c.005-1.771 1.35-3.205 3.013-3.211h41.394c1.662.006 3.008 1.44 3.013 3.211v29.206z"/><path d="M43.669 16.837H26.36c-.325.022-.585.298-.605.645-.022.38.25.706.605.73h17.31c.326-.022.585-.298.605-.645.022-.38-.249-.706-.605-.73zm0 7.477H26.36c-.325.021-.585.298-.605.645-.022.38.25.706.605.73h17.31c.326-.022.585-.299.605-.646.022-.379-.249-.706-.605-.729zm0-3.738H26.36c-.325.021-.585.298-.605.645-.022.38.25.706.605.729h17.31c.326-.021.585-.298.605-.645.022-.38-.249-.706-.605-.73zm0 7.477H26.36c-.325.02-.585.297-.605.644-.022.38.25.706.605.73h17.31c.326-.021.585-.298.605-.645.022-.38-.249-.706-.605-.73z"/></g></svg>