<svg viewBox="0 0 50 50" xmlns="http://www.w3.org/2000/svg" fill-rule="evenodd" clip-rule="evenodd" stroke-linejoin="round" stroke-miterlimit="2"><path d="M48.935 9.664c-1.99-2.737-5.473-5.207-9.81-6.956C34.814.968 29.806.007 25.026 0c-4.78-.012-9.795.94-14.114 2.666C6.567 4.4 3.075 6.86 1.08 9.592c-1.918 2.623-2.47 5.45-1.598 8.175.565 1.768 2.215 2.958 4.106 2.96l6.476.007h.006a4.326 4.326 0 003.329-1.552 4.255 4.255 0 00.903-3.607l-.34-1.325c1.886-.9 6.161-2.64 11.044-2.612 4.879.025 9.151 1.764 11.04 2.664L35.7 15.62c-.01.037-.018.074-.025.112a4.256 4.256 0 00.917 3.5 4.326 4.326 0 003.331 1.562l6.476.006h.006c1.888 0 3.538-1.184 4.108-2.949.88-2.725.335-5.555-1.577-8.187z" fill="#fff" fill-rule="nonzero"/><path d="M39.641 27.41l-4.829-5.07a1.547 1.547 0 00-1.12-.48h-3.12v-2.108a1.547 1.547 0 00-3.095 0v2.108h-4.953v-2.108a1.547 1.547 0 00-3.094 0v2.108h-3.12c-.424 0-.83.174-1.121.48l-4.829 5.07a21.194 21.194 0 00-5.87 14.68v6.364c0 .854.692 1.547 1.547 1.547h37.93c.854 0 1.546-.693 1.546-1.547V42.09c0-5.49-2.085-10.703-5.87-14.678zm-14.64 16.935c-4.465 0-8.097-3.632-8.097-8.096s3.632-8.096 8.097-8.096c4.464 0 8.096 3.632 8.096 8.096S29.465 44.345 25 44.345z" fill="#fff" fill-rule="nonzero"/><path d="M25 31.247a5.008 5.008 0 00-5.002 5.002 5.008 5.008 0 005.003 5.002 5.008 5.008 0 005.002-5.002A5.008 5.008 0 0025 31.247z" fill="#fff" fill-rule="nonzero"/></svg>