<svg viewBox="0 0 50 50" xmlns="http://www.w3.org/2000/svg" fill-rule="evenodd" clip-rule="evenodd" stroke-linejoin="round" stroke-miterlimit="2"><path d="M35.098 1.5H14.902a3.446 3.446 0 00-3.442 3.442v40.116a3.446 3.446 0 003.442 3.442h20.196a3.446 3.446 0 003.442-3.442V4.942A3.446 3.446 0 0035.098 1.5zm2.065 37.361H17.656a.688.688 0 000 1.377h19.507v4.82a2.068 2.068 0 01-2.065 2.065H14.902a2.068 2.068 0 01-2.065-2.065v-4.82h2.065a.688.688 0 000-1.377h-2.065V8.385h24.326V38.86zm0-31.853H12.837V4.942c0-1.139.926-2.065 2.065-2.065h20.196c1.139 0 2.065.926 2.065 2.065v2.066z" fill="#14a0bd" fill-rule="nonzero"/><path d="M27.754 4.254H25a.688.688 0 000 1.377h2.754a.688.688 0 000-1.377zM25 41.615a2.068 2.068 0 00-2.065 2.066c0 1.139.926 2.065 2.065 2.065a2.068 2.068 0 002.065-2.065A2.068 2.068 0 0025 41.615zm0 2.754a.69.69 0 11.001-1.378.69.69 0 01-.001 1.378z" fill="#14a0bd" fill-rule="nonzero"/><circle cx="226" cy="37.5" r="7.5" fill="#14a0bd" transform="translate(1.5 1.5) scale(.0918)"/></svg>