<?xml version="1.0" encoding="UTF-8" standalone="no"?>
<!DOCTYPE svg PUBLIC "-//W3C//DTD SVG 1.1//EN" "http://www.w3.org/Graphics/SVG/1.1/DTD/svg11.dtd">
<svg width="100%" height="100%" viewBox="0 0 50 50" version="1.1" xmlns="http://www.w3.org/2000/svg" xmlns:xlink="http://www.w3.org/1999/xlink" xml:space="preserve" xmlns:serif="http://www.serif.com/" style="fill-rule:evenodd;clip-rule:evenodd;stroke-linejoin:round;stroke-miterlimit:2;">
    <g transform="matrix(0.0917969,0,0,0.0917969,1.5,1.5)">
        <path d="M366,0L146,0C125.322,0 108.5,16.822 108.5,37.5L108.5,474.5C108.5,495.178 125.322,512 146,512L366,512C386.678,512 403.5,495.178 403.5,474.5L403.5,37.5C403.5,16.822 386.678,0 366,0ZM388.5,407L176,407C171.858,407 168.5,410.358 168.5,414.5C168.5,418.642 171.858,422 176,422L388.5,422L388.5,474.5C388.5,486.907 378.407,497 366,497L146,497C133.593,497 123.5,486.907 123.5,474.5L123.5,422L146,422C150.142,422 153.5,418.642 153.5,414.5C153.5,410.358 150.142,407 146,407L123.5,407L123.5,75L388.5,75L388.5,407ZM388.5,60L123.5,60L123.5,37.5C123.5,25.093 133.593,15 146,15L366,15C378.407,15 388.5,25.093 388.5,37.5L388.5,60Z" style="fill:rgb(20,160,189);fill-rule:nonzero;"/>
    </g>
    <g transform="matrix(0.0917969,0,0,0.0917969,1.5,1.5)">
        <path d="M286,30L256,30C251.858,30 248.5,33.358 248.5,37.5C248.5,41.642 251.858,45 256,45L286,45C290.142,45 293.5,41.642 293.5,37.5C293.5,33.358 290.142,30 286,30Z" style="fill:rgb(20,160,189);fill-rule:nonzero;"/>
    </g>
    <g transform="matrix(0.0917969,0,0,0.0917969,1.5,1.5)">
        <path d="M256,437C243.593,437 233.5,447.093 233.5,459.5C233.5,471.907 243.593,482 256,482C268.407,482 278.5,471.907 278.5,459.5C278.5,447.093 268.407,437 256,437ZM256,467C251.864,467 248.5,463.636 248.5,459.5C248.5,455.364 251.864,452 256,452C260.136,452 263.5,455.364 263.5,459.5C263.5,463.636 260.136,467 256,467Z" style="fill:rgb(20,160,189);fill-rule:nonzero;"/>
    </g>
    <g transform="matrix(0.0917969,0,0,0.0917969,1.5,1.5)">
        <circle cx="226" cy="37.5" r="7.5" style="fill:rgb(20,160,189);"/>
    </g>
</svg>
