<?xml version="1.0" encoding="UTF-8" standalone="no"?>
<!DOCTYPE svg PUBLIC "-//W3C//DTD SVG 1.1//EN" "http://www.w3.org/Graphics/SVG/1.1/DTD/svg11.dtd">
<svg width="100%" height="100%" viewBox="0 0 200 200" version="1.1" xmlns="http://www.w3.org/2000/svg" xmlns:xlink="http://www.w3.org/1999/xlink" xml:space="preserve" xmlns:serif="http://www.serif.com/" style="fill-rule:evenodd;clip-rule:evenodd;stroke-linejoin:round;stroke-miterlimit:2;">
    <g transform="matrix(0.386794,0,0,0.386794,1,2.8902)">
        <g>
            <g>
                <path d="M138.7,64C132.8,64 128,68.8 128,74.7C128,80.6 132.8,85.4 138.7,85.4C144.6,85.4 149.4,80.6 149.4,74.7C149.4,68.8 144.6,64 138.7,64Z" style="fill:rgb(20,160,189);fill-rule:nonzero;"/>
                <path d="M96,64C90.1,64 85.3,68.8 85.3,74.7C85.3,80.6 90.1,85.4 96,85.4C101.9,85.4 106.7,80.6 106.7,74.7C106.7,68.8 101.9,64 96,64Z" style="fill:rgb(20,160,189);fill-rule:nonzero;"/>
                <path d="M53.3,64C47.4,64 42.6,68.8 42.6,74.7C42.6,80.6 47.4,85.4 53.3,85.4C59.2,85.4 64,80.6 64,74.7C64,68.8 59.2,64 53.3,64Z" style="fill:rgb(20,160,189);fill-rule:nonzero;"/>
                <path d="M362.7,234.6C339.1,234.6 320,253.8 320,277.3L320,298.6C320,322.2 339.1,341.3 362.7,341.3C386.2,341.3 405.4,322.2 405.4,298.6L405.4,277.3C405.4,253.8 386.3,234.6 362.7,234.6ZM383.9,298.6C383.9,310.4 374.3,319.9 362.6,319.9C350.8,319.9 341.3,310.3 341.3,298.6L341.3,277.3C341.3,265.5 350.9,256 362.6,256C374.4,256 383.9,265.6 383.9,277.3L383.9,298.6Z" style="fill:rgb(20,160,189);fill-rule:nonzero;"/>
                <path d="M458.7,21.3L53.3,21.3C23.9,21.3 0,45.2 0,74.6L0,437.3C0,466.7 23.9,490.6 53.3,490.6L458.6,490.6C488,490.6 511.9,466.7 511.9,437.3L511.9,74.7C512,45.3 488.1,21.3 458.7,21.3ZM21.3,74.7C21.3,57.1 35.7,42.7 53.3,42.7L458.6,42.7C476.2,42.7 490.6,57.1 490.6,74.7L490.6,106.7L21.3,106.7L21.3,74.7ZM458.7,469.3L53.3,469.3C35.7,469.3 21.3,454.9 21.3,437.3L21.3,128L490.6,128L490.6,437.3L490.7,437.3C490.7,454.9 476.3,469.3 458.7,469.3Z" style="fill:rgb(20,160,189);fill-rule:nonzero;"/>
                <path d="M170.7,256C183.3,256 191.6,262 192.1,266.3C192.7,272.1 197.7,276.6 203.7,275.9C209.6,275.3 213.9,270.1 213.3,264.3C211.7,247.4 193.4,234.7 170.7,234.7C146.8,234.7 128,248.8 128,266.7C128,283.3 141.2,294 167.4,298.2L170.6,298.7C188.3,301.6 192,306.1 192,309.3C192,313.5 183.5,320 170.6,320C158,320 149.7,314 149.2,309.7C148.6,303.9 143.5,299.4 137.6,300.1C131.7,300.7 127.4,305.9 128,311.7C129.6,328.6 147.9,341.3 170.6,341.3C194.5,341.3 213.3,327.2 213.3,309.3C213.3,292.6 200.1,282 174,277.7L170.8,277.2C152.1,274.1 149.3,269.3 149.3,266.7C149.3,262.5 157.8,256 170.7,256Z" style="fill:rgb(20,160,189);fill-rule:nonzero;"/>
                <path d="M298.7,256C304.6,256 309.4,251.2 309.4,245.3C309.4,239.4 304.6,234.6 298.7,234.6L245.4,234.6C239.5,234.6 234.7,239.4 234.7,245.3L234.7,330.6C234.7,336.6 239.4,341.3 245.3,341.3L298.6,341.3C304.5,341.3 309.3,336.5 309.3,330.6C309.3,324.7 304.5,319.9 298.6,319.9L256,319.9L256,298.6L288,298.6C293.9,298.6 298.7,293.8 298.7,287.9C298.7,282 293.9,277.2 288,277.2L256,277.2L256,256L298.7,256Z" style="fill:rgb(20,160,189);fill-rule:nonzero;"/>
            </g>
        </g>
    </g>
</svg>
