<svg viewBox="0 0 200 200" xmlns="http://www.w3.org/2000/svg" fill-rule="evenodd" clip-rule="evenodd" stroke-linejoin="round" stroke-miterlimit="2"><g fill="#14a0bd" fill-rule="nonzero"><path d="M54.648 27.645a4.143 4.143 0 00-4.138 4.139 4.143 4.143 0 004.138 4.138 4.143 4.143 0 004.139-4.138 4.143 4.143 0 00-4.139-4.139zm-16.516 0a4.143 4.143 0 00-4.138 4.139 4.143 4.143 0 004.138 4.138 4.143 4.143 0 004.139-4.138 4.143 4.143 0 00-4.139-4.139zm-16.516 0a4.143 4.143 0 00-4.139 4.139 4.143 4.143 0 004.14 4.138 4.143 4.143 0 004.138-4.138 4.143 4.143 0 00-4.139-4.139zM141.29 93.632c-9.128 0-16.516 7.427-16.516 16.516v8.239c0 9.128 7.388 16.516 16.516 16.516 9.09 0 16.516-7.388 16.516-16.516v-8.239c0-9.09-7.387-16.516-16.516-16.516zm8.2 24.755c0 4.564-3.713 8.239-8.238 8.239-4.565 0-8.24-3.714-8.24-8.24v-8.238c0-4.564 3.714-8.239 8.24-8.239 4.564 0 8.238 3.714 8.238 8.24v8.238z"/><path d="M178.422 11.129H21.616C10.244 11.129 1 20.373 1 31.745v140.29c0 11.372 9.244 20.616 20.616 20.616h156.768c11.371 0 20.616-9.244 20.616-20.616V31.784c.039-11.372-9.206-20.655-20.578-20.655zM9.24 31.784c0-6.808 5.57-12.378 12.377-12.378h156.768c6.807 0 12.377 5.57 12.377 12.378V44.16H9.24V31.784zm169.183 152.629H21.616c-6.807 0-12.377-5.57-12.377-12.378V52.4H190.76v119.635h.039c0 6.808-5.57 12.378-12.378 12.378z"/><path d="M67.026 101.91c4.873 0 8.084 2.32 8.277 3.983.232 2.244 2.166 3.984 4.487 3.714 2.282-.232 3.945-2.244 3.713-4.487-.619-6.537-7.697-11.45-16.477-11.45-9.245 0-16.516 5.455-16.516 12.378 0 6.42 5.105 10.56 15.24 12.184l1.237.194c6.846 1.121 8.277 2.862 8.277 4.1 0 1.624-3.287 4.138-8.277 4.138-4.874 0-8.084-2.32-8.277-3.984-.232-2.243-2.205-3.984-4.487-3.713-2.282.232-3.945 2.243-3.713 4.487.619 6.537 7.697 11.449 16.477 11.449 9.244 0 16.516-5.454 16.516-12.377 0-6.46-5.106-10.56-15.2-12.223l-1.239-.194c-7.233-1.199-8.316-3.055-8.316-4.06 0-1.625 3.288-4.14 8.278-4.14zm49.509 0a4.143 4.143 0 004.14-4.14 4.143 4.143 0 00-4.14-4.138H95.92a4.143 4.143 0 00-4.138 4.139v32.993c0 2.321 1.817 4.139 4.1 4.139h20.616a4.143 4.143 0 004.138-4.139 4.143 4.143 0 00-4.138-4.138H100.02v-8.24h12.378a4.143 4.143 0 004.138-4.138 4.143 4.143 0 00-4.138-4.139H100.02v-8.2h16.516z"/></g></svg>