<svg viewBox="0 0 200 200" xmlns="http://www.w3.org/2000/svg" fill-rule="evenodd" clip-rule="evenodd" stroke-linejoin="round" stroke-miterlimit="2"><path d="M64.885 153.897c-11.186 0-20.253 9.068-20.253 20.253 0 11.186 9.068 20.253 20.253 20.253 11.186 0 20.253-9.068 20.253-20.253s-9.067-20.253-20.253-20.253zm0 31.505c-6.214 0-11.252-5.037-11.252-11.252 0-6.214 5.038-11.251 11.252-11.251s11.252 5.037 11.252 11.251c0 6.215-5.038 11.252-11.252 11.252zm85.515-31.505c-11.186 0-20.254 9.068-20.254 20.253 0 11.186 9.068 20.253 20.254 20.253 11.185 0 20.253-9.068 20.253-20.253s-9.068-20.253-20.253-20.253zm0 31.505c-6.215 0-11.252-5.037-11.252-11.252 0-6.214 5.037-11.251 11.252-11.251 6.214 0 11.251 5.037 11.251 11.251 0 6.215-5.037 11.252-11.251 11.252zm45.682-149.65a5.627 5.627 0 00-3.6-1.8l-146.5-2.026-4.05-12.377A20.704 20.704 0 0022.578 5.597H7.501a4.5 4.5 0 100 9.001h15.077a11.703 11.703 0 0110.802 7.877l28.58 86.19-2.25 5.175a21.603 21.603 0 002.025 19.578 20.929 20.929 0 0016.878 9.452h87.54a4.5 4.5 0 100-9.002h-87.54a11.477 11.477 0 01-9.452-5.4 12.376 12.376 0 01-1.125-10.803l1.8-4.05 94.741-9.902a24.754 24.754 0 0021.379-18.903l10.802-45.233a3.826 3.826 0 00-.676-3.825zM177.18 82.785a15.302 15.302 0 01-13.727 11.927l-93.616 9.676-20.928-63.46 137.948 2.025-9.677 39.832z" fill="#14a0bd" fill-rule="nonzero"/></svg>