<?xml version="1.0" encoding="UTF-8" standalone="no"?>
<!DOCTYPE svg PUBLIC "-//W3C//DTD SVG 1.1//EN" "http://www.w3.org/Graphics/SVG/1.1/DTD/svg11.dtd">
<svg width="100%" height="100%" viewBox="0 0 200 200" version="1.1" xmlns="http://www.w3.org/2000/svg" xmlns:xlink="http://www.w3.org/1999/xlink" xml:space="preserve" xmlns:serif="http://www.serif.com/" style="fill-rule:evenodd;clip-rule:evenodd;stroke-linejoin:round;stroke-miterlimit:2;">
    <g transform="matrix(0.430736,0,0,0.430736,3,3.00041)">
        <g>
            <g>
                <path d="M143.673,350.322C117.704,350.322 96.653,371.374 96.653,397.342C96.653,423.311 117.705,444.362 143.673,444.362C169.642,444.362 190.693,423.31 190.693,397.342C190.694,371.374 169.642,350.322 143.673,350.322ZM143.673,423.465C129.246,423.465 117.551,411.77 117.551,397.343C117.551,382.916 129.246,371.221 143.673,371.221C158.1,371.221 169.795,382.916 169.795,397.343C169.796,411.77 158.1,423.465 143.673,423.465Z" style="fill:rgb(20,160,189);fill-rule:nonzero;"/>
                <path d="M342.204,350.322C316.235,350.322 295.184,371.374 295.184,397.342C295.184,423.311 316.236,444.362 342.204,444.362C368.172,444.362 389.224,423.31 389.224,397.342C389.224,371.374 368.173,350.322 342.204,350.322ZM342.204,423.465C327.777,423.465 316.082,411.77 316.082,397.343C316.082,382.916 327.777,371.221 342.204,371.221C356.631,371.221 368.326,382.916 368.326,397.343C368.327,411.77 356.631,423.465 342.204,423.465Z" style="fill:rgb(20,160,189);fill-rule:nonzero;"/>
                <path d="M448.261,76.037C446.085,73.66 443.108,72.172 439.902,71.857L99.788,67.155L90.384,38.42C83.759,19.211 65.771,6.243 45.453,6.028L10.449,6.028C4.678,6.028 0,10.706 0,16.477C0,22.248 4.678,26.926 10.449,26.926L45.453,26.926C56.814,27.177 66.818,34.472 70.531,45.212L136.882,245.31L131.658,257.326C125.831,272.352 127.581,289.264 136.36,302.779C145.055,316.053 159.683,324.245 175.544,324.722L378.777,324.722C384.548,324.722 389.226,320.044 389.226,314.273C389.226,308.502 384.548,303.824 378.777,303.824L175.543,303.824C166.586,303.6 158.341,298.888 153.6,291.285C148.912,283.775 147.949,274.523 150.988,266.207L155.168,256.803L375.119,233.815C399.279,231.154 419.153,213.582 424.752,189.929L449.83,84.917C450.96,81.893 450.36,78.492 448.261,76.037ZM404.376,185.228C400.984,200.454 388.057,211.685 372.507,212.918L155.168,235.383L106.58,88.053L426.841,92.755L404.376,185.228Z" style="fill:rgb(20,160,189);fill-rule:nonzero;"/>
            </g>
        </g>
    </g>
</svg>
