<svg viewBox="0 0 200 200" xmlns="http://www.w3.org/2000/svg" fill-rule="evenodd" clip-rule="evenodd" stroke-linejoin="round" stroke-miterlimit="2"><path d="M184.93 5.267H15.07C7.864 5.267 2 11.13 2 18.337v107.796a3.268 3.268 0 003.267 3.267h189.466a3.268 3.268 0 003.267-3.267V18.337c0-7.207-5.864-13.07-13.07-13.07zm6.537 117.6H8.533V18.337A6.543 6.543 0 0115.07 11.8h169.86a6.543 6.543 0 016.537 6.537v104.53z" fill="#14a0bd" fill-rule="nonzero"/><path d="M194.733 122.867H5.267A3.268 3.268 0 002 126.133v16.33c0 7.207 5.864 13.07 13.07 13.07h169.86c7.206 0 13.07-5.863 13.07-13.07v-16.33a3.268 3.268 0 00-3.267-3.266zm-3.266 19.596A6.543 6.543 0 01184.93 149H15.07a6.543 6.543 0 01-6.537-6.537V129.4h182.934v13.063z" fill="#14a0bd" fill-rule="nonzero"/><path d="M109.8 135.933H90.2a3.268 3.268 0 00-3.267 3.267 3.268 3.268 0 003.267 3.267h19.6a3.268 3.268 0 003.267-3.267 3.268 3.268 0 00-3.267-3.267zm71.867-117.6H18.333a3.268 3.268 0 00-3.266 3.267v104.533a3.268 3.268 0 003.266 3.267h163.334a3.268 3.268 0 003.266-3.267V21.6a3.268 3.268 0 00-3.266-3.267zM178.4 122.867H21.6v-98h156.8v98zm-35.933 52.266H57.533c-5.403 0-9.8 4.397-9.8 9.8 0 5.403 4.397 9.8 9.8 9.8h84.934c5.403 0 9.8-4.397 9.8-9.8 0-5.403-4.397-9.8-9.8-9.8zm0 13.067H57.533a3.27 3.27 0 01-3.266-3.267 3.27 3.27 0 013.266-3.266h84.934a3.27 3.27 0 013.266 3.266 3.27 3.27 0 01-3.266 3.267z" fill="#14a0bd" fill-rule="nonzero"/><path d="M135.933 175.133c-10.838 0-16.333-7.693-16.333-22.866a3.268 3.268 0 00-3.267-3.267H83.667a3.268 3.268 0 00-3.267 3.267c0 15.173-5.494 22.866-16.333 22.866A3.268 3.268 0 0060.8 178.4a3.268 3.268 0 003.267 3.267h71.866a3.268 3.268 0 003.267-3.267 3.268 3.268 0 00-3.267-3.267zm-55.954 0c4.021-4.455 6.389-11.09 6.866-19.6h26.313c.474 8.51 2.842 15.145 6.867 19.6H79.979zm78.115-73.617l-7.885-7.886 4.387-4.387a3.27 3.27 0 00.859-3.11 3.27 3.27 0 00-2.228-2.329l-32.667-9.8a3.261 3.261 0 00-3.247.82 3.257 3.257 0 00-.82 3.247l9.8 32.667a3.263 3.263 0 002.33 2.23 3.29 3.29 0 003.11-.858l4.618-4.623 7.886 7.889a3.259 3.259 0 002.31.957c.865 0 1.698-.343 2.31-.957l9.237-9.241a3.263 3.263 0 000-4.62zm-11.547 6.932l-7.18-7.184a4.249 4.249 0 00-3.016-1.248 4.26 4.26 0 00-3.015 1.245l-2.358 2.358-6.485-21.615 21.616 6.484-2.528 2.529a3.68 3.68 0 00-1.078 2.613c0 .99.385 1.924 1.084 2.617l7.579 7.578-4.62 4.623zM139.2 31.4H47.733a3.268 3.268 0 00-3.266 3.267V51a3.268 3.268 0 003.266 3.267H139.2A3.268 3.268 0 00142.467 51V34.667A3.268 3.268 0 00139.2 31.4zm-3.267 16.333H51v-9.8h84.933v9.8zm-49 19.6H60.8a3.268 3.268 0 00-3.267 3.267v13.067a3.268 3.268 0 003.267 3.266h26.133a3.268 3.268 0 003.267-3.266V70.6a3.268 3.268 0 00-3.267-3.267zM83.667 80.4h-19.6v-6.533h19.6V80.4z" fill="#14a0bd" fill-rule="nonzero"/><path d="M139.2 31.4H47.733a3.268 3.268 0 00-3.266 3.267v62.066A3.268 3.268 0 0047.733 100H125.5a3.254 3.254 0 002.62-1.317c.617-.83.807-1.9.51-2.89l-4.136-13.79 13.769 4.133c.99.298 2.061.108 2.887-.51a3.259 3.259 0 001.317-2.62v-48.34A3.268 3.268 0 00139.2 31.4zm-3.267 47.216l-15.376-4.612a3.261 3.261 0 00-3.247.82 3.263 3.263 0 00-.82 3.25l4.619 15.393H51V37.933h84.933v40.683z" fill="#14a0bd" fill-rule="nonzero"/></svg>