<svg viewBox="0 0 500 100" xmlns="http://www.w3.org/2000/svg" fill-rule="evenodd" clip-rule="evenodd" stroke-linejoin="round" stroke-miterlimit="2"><path d="M189 .083H0v100h189v-100zM20 26.5l16.533 46.667h4L53.267 36.7h.333l12.333 36.467h3.934L86.4 26.5h-3.067l-13.8 38.933h-.266l-13-38.933H53.4L40.133 65.233h-.266L26.133 26.5H20zm76.4 0v46.667h30.133V69.5h-24.066V49.967h20.666V46.9h-20.666V30.167h24.066V26.5H96.4zm40.133 46.667h16.8c3 0 5.534-.4 7.534-1.2 2.066-.734 3.733-1.734 5-3C167.133 67.7 168 66.3 168.533 64.7c.6-1.533.867-3.133.867-4.733 0-2.534-.533-4.534-1.667-6.067-1.133-1.533-2.4-2.667-3.933-3.467-1.533-.8-3.067-1.333-4.667-1.6a39.33 39.33 0 00-3.866-.466V48.1c1.533 0 3-.333 4.4-.933 1.4-.6 2.6-1.334 3.666-2.334 1-.933 1.867-2.066 2.467-3.266.6-1.334.933-2.667.933-4.067 0-1.267-.266-2.533-.8-3.8a10.297 10.297 0 00-2.466-3.533c-1.067-1.067-2.467-1.934-4.2-2.667-1.667-.667-3.734-1-6-1h-16.734v46.667zm6.067-2.934v-20.4h7.333c2.2 0 4.134.267 5.734.867 1.6.6 2.933 1.333 3.933 2.333 1.067 1 1.867 2.134 2.333 3.4.534 1.267.8 2.667.8 4.067 0 1.533-.266 2.933-.866 4.133a9.259 9.259 0 01-2.2 3.067c-.934.867-2.067 1.467-3.334 1.867-1.266.466-2.6.666-4.066.666H142.6zm0-23.333V29.433h8.133c1.734 0 3.2.267 4.467.734a8.62 8.62 0 013 1.933c.733.8 1.333 1.733 1.667 2.733.333 1 .533 2.067.533 3.067a9.398 9.398 0 01-.733 3.6c-.534 1.133-1.267 2.067-2.134 2.867-.933.8-2 1.4-3.133 1.866-1.2.467-2.467.667-3.8.667h-8z" fill="#fff"/><path d="M251.267 64.817c-4.534 4.266-9.934 6.4-16.134 6.4-3.466 0-6.533-.6-9.2-1.8-2.666-1.2-4.866-2.8-6.666-4.8-1.8-2-3.134-4.334-4-6.934-.934-2.6-1.4-5.333-1.4-8.2 0-3 .466-5.8 1.466-8.333.934-2.467 2.267-4.667 4-6.467 1.734-1.8 3.8-3.266 6.2-4.266 2.334-1 4.934-1.534 7.734-1.534 1.933 0 3.666.2 5.266.667 1.534.467 2.934 1 4.2 1.733 1.2.734 2.2 1.534 2.934 2.4.8.934 1.333 1.867 1.666 2.8h4.934a19.029 19.029 0 00-2.534-4.2c-1.066-1.266-2.4-2.4-3.933-3.333-1.533-.933-3.4-1.667-5.467-2.2-2.066-.533-4.466-.8-7.133-.8-3.867 0-7.4.533-10.533 1.667-3.2 1.133-5.934 2.666-8.2 4.733-2.267 2.067-4 4.6-5.267 7.533-1.267 2.867-1.867 6.134-1.867 9.734 0 3.133.534 6.133 1.534 9.066.933 3 2.533 5.6 4.6 7.934 2.066 2.266 4.733 4.066 8 5.466 3.266 1.4 7.133 2.134 11.6 2.134 2.866 0 5.4-.267 7.666-.8 2.2-.534 4.2-1.2 5.867-1.934 1.667-.8 3-1.666 4.133-2.533a18.256 18.256 0 002.534-2.333l-2-1.8zm37.266-5.134l6.4 13.734h6.467L279.667 26.75h-3.334L256.6 73.417h3.067l5.866-13.734h23zm-1.4-3H266.8l9.6-22.466h.267l10.466 22.466zM311.4 26.75v46.667h6.067v-20.6h2.933c1.267 0 2.267.133 3.133.333.8.2 1.534.6 2.2 1.133.734.534 1.334 1.2 1.934 2.067.533.867 1.266 1.867 2.066 3.133l5.267 7.8c.667 1 1.333 1.934 1.933 2.8A12.625 12.625 0 00339 72.217c.8.6 1.6 1.133 2.6 1.466.933.334 2.067.534 3.4.534 1 0 1.8-.067 2.4-.134.6-.066 1.267-.333 1.867-.666V70.95c-.2.067-.467.067-.667.133h-.667c-.933 0-1.733-.133-2.466-.4a6.155 6.155 0 01-2-1.2c-.6-.466-1.2-1.133-1.8-1.8-.6-.8-1.134-1.6-1.8-2.533-1.8-2.733-3.267-4.867-4.267-6.533-1-1.6-1.8-2.867-2.4-3.734a27.454 27.454 0 00-1.467-1.933c-.4-.4-.866-.733-1.4-1l-.666-.333v-.267c2.133-.133 3.933-.6 5.466-1.4 1.534-.8 2.8-1.8 3.734-3 1-1.2 1.733-2.533 2.133-3.933.467-1.334.667-2.734.667-4.067 0-1.2-.2-2.533-.667-3.933s-1.267-2.734-2.4-3.934c-1.2-1.266-2.733-2.266-4.667-3.133-1.933-.8-4.4-1.2-7.4-1.2H311.4zm6.067 2.933h6.733c1.733 0 3.267.267 4.6.734 1.4.466 2.533 1.2 3.533 2a7.897 7.897 0 012.2 3.133c.534 1.2.8 2.533.8 3.933 0 1.2-.266 2.4-.733 3.6a9.646 9.646 0 01-2.067 3.334c-.933 1-2.066 1.866-3.466 2.466-1.334.6-2.934.934-4.734.934h-6.866V29.683zm31.8-2.933L368.8 73.417h4l18.933-46.667h-3.466l-15.534 38.4h-.266l-16-38.4h-7.2zm52.466 0v46.667h30.134V69.75H407.8V50.217h20.667V47.15H407.8V30.417h24.067V26.75h-30.134zm40.134 0v46.667h6.066v-20.6h2.934c1.266 0 2.266.133 3.133.333.8.2 1.533.6 2.2 1.133.733.534 1.333 1.2 1.933 2.067.534.867 1.267 1.867 2.067 3.133l5.267 7.8c.666 1 1.333 1.934 1.933 2.8a12.625 12.625 0 002.067 2.134c.8.6 1.6 1.133 2.6 1.466.933.334 2.066.534 3.4.534 1 0 1.8-.067 2.4-.134.6-.066 1.266-.333 1.866-.666V70.95c-.2.067-.467.067-.667.133h-.666c-.934 0-1.734-.133-2.467-.4a6.155 6.155 0 01-2-1.2c-.6-.466-1.2-1.133-1.8-1.8-.6-.8-1.133-1.6-1.8-2.533-1.8-2.733-3.266-4.867-4.266-6.533-1-1.6-1.8-2.867-2.4-3.734a27.454 27.454 0 00-1.467-1.933c-.4-.4-.867-.733-1.4-1l-.667-.333v-.267c2.134-.133 3.934-.6 5.467-1.4 1.533-.8 2.8-1.8 3.733-3 1-1.2 1.734-2.533 2.133-3.933.467-1.334.667-2.734.667-4.067 0-1.2-.2-2.533-.667-3.933-.466-1.4-1.266-2.734-2.4-3.934-1.2-1.266-2.733-2.266-4.666-3.133-1.933-.8-4.4-1.2-7.4-1.2h-15.133zm6.066 2.933h6.734c1.733 0 3.266.267 4.6.734 1.4.466 2.533 1.2 3.533 2a7.897 7.897 0 012.2 3.133c.533 1.2.8 2.533.8 3.933 0 1.2-.267 2.4-.733 3.6A9.646 9.646 0 01463 46.417c-.933 1-2.067 1.866-3.467 2.466-1.333.6-2.933.934-4.733.934h-6.867V29.683z" fill="#fff" fill-rule="nonzero"/><path fill="#fff" d="M189 98h311v2H189z"/></svg>