<?xml version="1.0" encoding="UTF-8" standalone="no"?>
<!DOCTYPE svg PUBLIC "-//W3C//DTD SVG 1.1//EN" "http://www.w3.org/Graphics/SVG/1.1/DTD/svg11.dtd">
<svg width="100%" height="100%" viewBox="0 0 500 100" version="1.1" xmlns="http://www.w3.org/2000/svg" xmlns:xlink="http://www.w3.org/1999/xlink" xml:space="preserve" xmlns:serif="http://www.serif.com/" style="fill-rule:evenodd;clip-rule:evenodd;stroke-linejoin:round;stroke-miterlimit:2;">
    <g id="Artboard1" transform="matrix(0.31,0,0,0.47,18,26.5)">
        <g transform="matrix(3.22581,0,0,2.12766,-58.0645,-56.383)">
            <path d="M189,0.083L0,0.083L0,100.083L189,100.083L189,0.083ZM20,26.5L36.533,73.167L40.533,73.167L53.267,36.7L53.6,36.7L65.933,73.167L69.867,73.167L86.4,26.5L83.333,26.5L69.533,65.433L69.267,65.433L56.267,26.5L53.4,26.5L40.133,65.233L39.867,65.233L26.133,26.5L20,26.5ZM96.4,26.5L96.4,73.167L126.533,73.167L126.533,69.5L102.467,69.5L102.467,49.967L123.133,49.967L123.133,46.9L102.467,46.9L102.467,30.167L126.533,30.167L126.533,26.5L96.4,26.5ZM136.533,73.167L153.333,73.167C156.333,73.167 158.867,72.767 160.867,71.967C162.933,71.233 164.6,70.233 165.867,68.967C167.133,67.7 168,66.3 168.533,64.7C169.133,63.167 169.4,61.567 169.4,59.967C169.4,57.433 168.867,55.433 167.733,53.9C166.6,52.367 165.333,51.233 163.8,50.433C162.267,49.633 160.733,49.1 159.133,48.833C157.533,48.567 156.267,48.433 155.267,48.367L155.267,48.1C156.8,48.1 158.267,47.767 159.667,47.167C161.067,46.567 162.267,45.833 163.333,44.833C164.333,43.9 165.2,42.767 165.8,41.567C166.4,40.233 166.733,38.9 166.733,37.5C166.733,36.233 166.467,34.967 165.933,33.7C165.4,32.433 164.6,31.233 163.467,30.167C162.4,29.1 161,28.233 159.267,27.5C157.6,26.833 155.533,26.5 153.267,26.5L136.533,26.5L136.533,73.167ZM142.6,70.233L142.6,49.833L149.933,49.833C152.133,49.833 154.067,50.1 155.667,50.7C157.267,51.3 158.6,52.033 159.6,53.033C160.667,54.033 161.467,55.167 161.933,56.433C162.467,57.7 162.733,59.1 162.733,60.5C162.733,62.033 162.467,63.433 161.867,64.633C161.333,65.833 160.6,66.833 159.667,67.7C158.733,68.567 157.6,69.167 156.333,69.567C155.067,70.033 153.733,70.233 152.267,70.233L142.6,70.233ZM142.6,46.9L142.6,29.433L150.733,29.433C152.467,29.433 153.933,29.7 155.2,30.167C156.4,30.633 157.4,31.3 158.2,32.1C158.933,32.9 159.533,33.833 159.867,34.833C160.2,35.833 160.4,36.9 160.4,37.9C160.4,39.167 160.133,40.367 159.667,41.5C159.133,42.633 158.4,43.567 157.533,44.367C156.6,45.167 155.533,45.767 154.4,46.233C153.2,46.7 151.933,46.9 150.6,46.9L142.6,46.9Z" style="fill:white;"/>
        </g>
    </g>
    <g id="Artboard11" serif:id="Artboard1" transform="matrix(0.556,0,0,0.4675,204,26.75)">
        <g transform="matrix(119.904,0,0,142.602,0,99.8217)">
            <path d="M0.709,-0.129C0.641,-0.065 0.56,-0.033 0.467,-0.033C0.415,-0.033 0.369,-0.042 0.329,-0.06C0.289,-0.078 0.256,-0.102 0.229,-0.132C0.202,-0.162 0.182,-0.197 0.169,-0.236C0.155,-0.275 0.148,-0.316 0.148,-0.359C0.148,-0.404 0.155,-0.446 0.17,-0.484C0.184,-0.521 0.204,-0.554 0.23,-0.581C0.256,-0.608 0.287,-0.63 0.323,-0.645C0.358,-0.66 0.397,-0.668 0.439,-0.668C0.468,-0.668 0.494,-0.665 0.518,-0.658C0.541,-0.651 0.562,-0.643 0.581,-0.632C0.599,-0.621 0.614,-0.609 0.625,-0.596C0.637,-0.582 0.645,-0.568 0.65,-0.554L0.724,-0.554C0.714,-0.577 0.701,-0.598 0.686,-0.617C0.67,-0.636 0.65,-0.653 0.627,-0.667C0.604,-0.681 0.576,-0.692 0.545,-0.7C0.514,-0.708 0.478,-0.712 0.438,-0.712C0.38,-0.712 0.327,-0.704 0.28,-0.687C0.232,-0.67 0.191,-0.647 0.157,-0.616C0.123,-0.585 0.097,-0.547 0.078,-0.503C0.059,-0.46 0.05,-0.411 0.05,-0.357C0.05,-0.31 0.058,-0.265 0.073,-0.221C0.087,-0.176 0.111,-0.137 0.142,-0.102C0.173,-0.068 0.213,-0.041 0.262,-0.02C0.311,0.001 0.369,0.012 0.436,0.012C0.479,0.012 0.517,0.008 0.551,0C0.584,-0.008 0.614,-0.018 0.639,-0.029C0.664,-0.041 0.684,-0.054 0.701,-0.067C0.718,-0.08 0.73,-0.092 0.739,-0.102L0.709,-0.129Z" style="fill:white;fill-rule:nonzero;"/>
        </g>
        <g transform="matrix(119.904,0,0,142.602,91.0072,99.8217)">
            <path d="M0.509,-0.206L0.605,0L0.702,0L0.376,-0.7L0.326,-0.7L0.03,0L0.076,0L0.164,-0.206L0.509,-0.206ZM0.488,-0.251L0.183,-0.251L0.327,-0.588L0.331,-0.588L0.488,-0.251Z" style="fill:white;fill-rule:nonzero;"/>
        </g>
        <g transform="matrix(119.904,0,0,142.602,178.777,99.8217)">
            <path d="M0.12,-0.7L0.12,0L0.211,0L0.211,-0.309L0.255,-0.309C0.274,-0.309 0.289,-0.307 0.302,-0.304C0.314,-0.301 0.325,-0.295 0.335,-0.287C0.346,-0.279 0.355,-0.269 0.364,-0.256C0.372,-0.243 0.383,-0.228 0.395,-0.209L0.474,-0.092C0.484,-0.077 0.494,-0.063 0.503,-0.05C0.513,-0.037 0.523,-0.027 0.534,-0.018C0.546,-0.009 0.558,-0.001 0.573,0.004C0.587,0.009 0.604,0.012 0.624,0.012C0.639,0.012 0.651,0.011 0.66,0.01C0.669,0.009 0.679,0.005 0.688,0L0.688,-0.037C0.685,-0.036 0.681,-0.036 0.678,-0.035L0.668,-0.035C0.654,-0.035 0.642,-0.037 0.631,-0.041C0.62,-0.045 0.61,-0.051 0.601,-0.059C0.592,-0.066 0.583,-0.076 0.574,-0.086C0.565,-0.098 0.557,-0.11 0.547,-0.124C0.52,-0.165 0.498,-0.197 0.483,-0.222C0.468,-0.246 0.456,-0.265 0.447,-0.278C0.438,-0.291 0.43,-0.301 0.425,-0.307C0.419,-0.313 0.412,-0.318 0.404,-0.322L0.394,-0.327L0.394,-0.331C0.426,-0.333 0.453,-0.34 0.476,-0.352C0.499,-0.364 0.518,-0.379 0.532,-0.397C0.547,-0.415 0.558,-0.435 0.564,-0.456C0.571,-0.476 0.574,-0.497 0.574,-0.517C0.574,-0.535 0.571,-0.555 0.564,-0.576C0.557,-0.597 0.545,-0.617 0.528,-0.635C0.51,-0.654 0.487,-0.669 0.458,-0.682C0.429,-0.694 0.392,-0.7 0.347,-0.7L0.12,-0.7ZM0.211,-0.656L0.312,-0.656C0.338,-0.656 0.361,-0.652 0.381,-0.645C0.402,-0.638 0.419,-0.627 0.434,-0.615C0.449,-0.602 0.46,-0.586 0.467,-0.568C0.475,-0.55 0.479,-0.53 0.479,-0.509C0.479,-0.491 0.475,-0.473 0.468,-0.455C0.461,-0.436 0.451,-0.42 0.437,-0.405C0.423,-0.39 0.406,-0.377 0.385,-0.368C0.365,-0.359 0.341,-0.354 0.314,-0.354L0.211,-0.354L0.211,-0.656Z" style="fill:white;fill-rule:nonzero;"/>
        </g>
        <g transform="matrix(119.904,0,0,142.602,257.674,99.8217)">
            <path d="M0.03,-0.7L0.323,0L0.383,0L0.667,-0.7L0.615,-0.7L0.382,-0.124L0.378,-0.124L0.138,-0.7L0.03,-0.7Z" style="fill:white;fill-rule:nonzero;"/>
        </g>
        <g transform="matrix(119.904,0,0,142.602,341.247,99.8217)">
            <path d="M0.12,-0.7L0.12,0L0.572,0L0.572,-0.055L0.211,-0.055L0.211,-0.348L0.521,-0.348L0.521,-0.394L0.211,-0.394L0.211,-0.645L0.572,-0.645L0.572,-0.7L0.12,-0.7Z" style="fill:white;fill-rule:nonzero;"/>
        </g>
        <g transform="matrix(119.904,0,0,142.602,413.429,99.8217)">
            <path d="M0.12,-0.7L0.12,0L0.211,0L0.211,-0.309L0.255,-0.309C0.274,-0.309 0.289,-0.307 0.302,-0.304C0.314,-0.301 0.325,-0.295 0.335,-0.287C0.346,-0.279 0.355,-0.269 0.364,-0.256C0.372,-0.243 0.383,-0.228 0.395,-0.209L0.474,-0.092C0.484,-0.077 0.494,-0.063 0.503,-0.05C0.513,-0.037 0.523,-0.027 0.534,-0.018C0.546,-0.009 0.558,-0.001 0.573,0.004C0.587,0.009 0.604,0.012 0.624,0.012C0.639,0.012 0.651,0.011 0.66,0.01C0.669,0.009 0.679,0.005 0.688,0L0.688,-0.037C0.685,-0.036 0.681,-0.036 0.678,-0.035L0.668,-0.035C0.654,-0.035 0.642,-0.037 0.631,-0.041C0.62,-0.045 0.61,-0.051 0.601,-0.059C0.592,-0.066 0.583,-0.076 0.574,-0.086C0.565,-0.098 0.557,-0.11 0.547,-0.124C0.52,-0.165 0.498,-0.197 0.483,-0.222C0.468,-0.246 0.456,-0.265 0.447,-0.278C0.438,-0.291 0.43,-0.301 0.425,-0.307C0.419,-0.313 0.412,-0.318 0.404,-0.322L0.394,-0.327L0.394,-0.331C0.426,-0.333 0.453,-0.34 0.476,-0.352C0.499,-0.364 0.518,-0.379 0.532,-0.397C0.547,-0.415 0.558,-0.435 0.564,-0.456C0.571,-0.476 0.574,-0.497 0.574,-0.517C0.574,-0.535 0.571,-0.555 0.564,-0.576C0.557,-0.597 0.545,-0.617 0.528,-0.635C0.51,-0.654 0.487,-0.669 0.458,-0.682C0.429,-0.694 0.392,-0.7 0.347,-0.7L0.12,-0.7ZM0.211,-0.656L0.312,-0.656C0.338,-0.656 0.361,-0.652 0.381,-0.645C0.402,-0.638 0.419,-0.627 0.434,-0.615C0.449,-0.602 0.46,-0.586 0.467,-0.568C0.475,-0.55 0.479,-0.53 0.479,-0.509C0.479,-0.491 0.475,-0.473 0.468,-0.455C0.461,-0.436 0.451,-0.42 0.437,-0.405C0.423,-0.39 0.406,-0.377 0.385,-0.368C0.365,-0.359 0.341,-0.354 0.314,-0.354L0.211,-0.354L0.211,-0.656Z" style="fill:white;fill-rule:nonzero;"/>
        </g>
    </g>
    <rect x="189" y="98" width="311" height="2" style="fill:white;"/>
</svg>
