<?xml version="1.0" encoding="UTF-8" standalone="no"?>
<!DOCTYPE svg PUBLIC "-//W3C//DTD SVG 1.1//EN" "http://www.w3.org/Graphics/SVG/1.1/DTD/svg11.dtd">
<svg width="100%" height="100%" viewBox="0 0 500 100" version="1.1" xmlns="http://www.w3.org/2000/svg" xmlns:xlink="http://www.w3.org/1999/xlink" xml:space="preserve" xmlns:serif="http://www.serif.com/" style="fill-rule:evenodd;clip-rule:evenodd;stroke-linejoin:round;stroke-miterlimit:2;">
    <g transform="matrix(1.05,0,0,1,0,-1.42109e-14)">
        <rect x="0" y="0" width="180" height="100" style="fill:rgb(20,160,189);"/>
    </g>
    <g id="Artboard1" transform="matrix(0.31,0,0,0.47,18,26.5)">
        <g transform="matrix(215.054,0,0,141.844,0,99.2908)">
            <path d="M0.03,-0.7L0.278,0L0.338,0L0.529,-0.547L0.534,-0.547L0.719,0L0.778,0L1.026,-0.7L0.98,-0.7L0.773,-0.116L0.769,-0.116L0.574,-0.7L0.531,-0.7L0.332,-0.119L0.328,-0.119L0.122,-0.7L0.03,-0.7Z" style="fill:white;fill-rule:nonzero;"/>
        </g>
        <g transform="matrix(215.054,0,0,141.844,227.097,99.2908)">
            <path d="M0.12,-0.7L0.12,0L0.572,0L0.572,-0.055L0.211,-0.055L0.211,-0.348L0.521,-0.348L0.521,-0.394L0.211,-0.394L0.211,-0.645L0.572,-0.645L0.572,-0.7L0.12,-0.7Z" style="fill:white;fill-rule:nonzero;"/>
        </g>
        <g transform="matrix(215.054,0,0,141.844,356.559,99.2908)">
            <path d="M0.12,0L0.372,0C0.417,0 0.455,-0.006 0.485,-0.018C0.516,-0.029 0.541,-0.044 0.56,-0.063C0.579,-0.082 0.592,-0.103 0.6,-0.127C0.609,-0.15 0.613,-0.174 0.613,-0.198C0.613,-0.236 0.605,-0.266 0.588,-0.289C0.571,-0.312 0.552,-0.329 0.529,-0.341C0.506,-0.353 0.483,-0.361 0.459,-0.365C0.435,-0.369 0.416,-0.371 0.401,-0.372L0.401,-0.376C0.424,-0.376 0.446,-0.381 0.467,-0.39C0.488,-0.399 0.506,-0.41 0.522,-0.425C0.537,-0.439 0.55,-0.456 0.559,-0.474C0.568,-0.494 0.573,-0.514 0.573,-0.535C0.573,-0.554 0.569,-0.573 0.561,-0.592C0.553,-0.611 0.541,-0.629 0.524,-0.645C0.508,-0.661 0.487,-0.674 0.461,-0.685C0.436,-0.695 0.405,-0.7 0.371,-0.7L0.12,-0.7L0.12,0ZM0.211,-0.044L0.211,-0.35L0.321,-0.35C0.354,-0.35 0.383,-0.346 0.407,-0.337C0.431,-0.328 0.451,-0.317 0.466,-0.302C0.482,-0.287 0.494,-0.27 0.501,-0.251C0.509,-0.232 0.513,-0.211 0.513,-0.19C0.513,-0.167 0.509,-0.146 0.5,-0.128C0.492,-0.11 0.481,-0.095 0.467,-0.082C0.453,-0.069 0.436,-0.06 0.417,-0.054C0.398,-0.047 0.378,-0.044 0.356,-0.044L0.211,-0.044ZM0.211,-0.394L0.211,-0.656L0.333,-0.656C0.359,-0.656 0.381,-0.652 0.4,-0.645C0.418,-0.638 0.433,-0.628 0.445,-0.616C0.456,-0.604 0.465,-0.59 0.47,-0.575C0.475,-0.56 0.478,-0.544 0.478,-0.529C0.478,-0.51 0.474,-0.492 0.467,-0.475C0.459,-0.458 0.448,-0.444 0.435,-0.432C0.421,-0.42 0.405,-0.411 0.388,-0.404C0.37,-0.397 0.351,-0.394 0.331,-0.394L0.211,-0.394Z" style="fill:white;fill-rule:nonzero;"/>
        </g>
    </g>
    <g id="Artboard11" serif:id="Artboard1" transform="matrix(0.556,0,0,0.4675,204,26.75)">
        <g transform="matrix(119.904,0,0,142.602,0,99.8217)">
            <path d="M0.709,-0.129C0.641,-0.065 0.56,-0.033 0.467,-0.033C0.415,-0.033 0.369,-0.042 0.329,-0.06C0.289,-0.078 0.256,-0.102 0.229,-0.132C0.202,-0.162 0.182,-0.197 0.169,-0.236C0.155,-0.275 0.148,-0.316 0.148,-0.359C0.148,-0.404 0.155,-0.446 0.17,-0.484C0.184,-0.521 0.204,-0.554 0.23,-0.581C0.256,-0.608 0.287,-0.63 0.323,-0.645C0.358,-0.66 0.397,-0.668 0.439,-0.668C0.468,-0.668 0.494,-0.665 0.518,-0.658C0.541,-0.651 0.562,-0.643 0.581,-0.632C0.599,-0.621 0.614,-0.609 0.625,-0.596C0.637,-0.582 0.645,-0.568 0.65,-0.554L0.724,-0.554C0.714,-0.577 0.701,-0.598 0.686,-0.617C0.67,-0.636 0.65,-0.653 0.627,-0.667C0.604,-0.681 0.576,-0.692 0.545,-0.7C0.514,-0.708 0.478,-0.712 0.438,-0.712C0.38,-0.712 0.327,-0.704 0.28,-0.687C0.232,-0.67 0.191,-0.647 0.157,-0.616C0.123,-0.585 0.097,-0.547 0.078,-0.503C0.059,-0.46 0.05,-0.411 0.05,-0.357C0.05,-0.31 0.058,-0.265 0.073,-0.221C0.087,-0.176 0.111,-0.137 0.142,-0.102C0.173,-0.068 0.213,-0.041 0.262,-0.02C0.311,0.001 0.369,0.012 0.436,0.012C0.479,0.012 0.517,0.008 0.551,0C0.584,-0.008 0.614,-0.018 0.639,-0.029C0.664,-0.041 0.684,-0.054 0.701,-0.067C0.718,-0.08 0.73,-0.092 0.739,-0.102L0.709,-0.129Z" style="fill-rule:nonzero;"/>
        </g>
        <g transform="matrix(119.904,0,0,142.602,91.0072,99.8217)">
            <path d="M0.509,-0.206L0.605,0L0.702,0L0.376,-0.7L0.326,-0.7L0.03,0L0.076,0L0.164,-0.206L0.509,-0.206ZM0.488,-0.251L0.183,-0.251L0.327,-0.588L0.331,-0.588L0.488,-0.251Z" style="fill-rule:nonzero;"/>
        </g>
        <g transform="matrix(119.904,0,0,142.602,178.777,99.8217)">
            <path d="M0.12,-0.7L0.12,0L0.211,0L0.211,-0.309L0.255,-0.309C0.274,-0.309 0.289,-0.307 0.302,-0.304C0.314,-0.301 0.325,-0.295 0.335,-0.287C0.346,-0.279 0.355,-0.269 0.364,-0.256C0.372,-0.243 0.383,-0.228 0.395,-0.209L0.474,-0.092C0.484,-0.077 0.494,-0.063 0.503,-0.05C0.513,-0.037 0.523,-0.027 0.534,-0.018C0.546,-0.009 0.558,-0.001 0.573,0.004C0.587,0.009 0.604,0.012 0.624,0.012C0.639,0.012 0.651,0.011 0.66,0.01C0.669,0.009 0.679,0.005 0.688,0L0.688,-0.037C0.685,-0.036 0.681,-0.036 0.678,-0.035L0.668,-0.035C0.654,-0.035 0.642,-0.037 0.631,-0.041C0.62,-0.045 0.61,-0.051 0.601,-0.059C0.592,-0.066 0.583,-0.076 0.574,-0.086C0.565,-0.098 0.557,-0.11 0.547,-0.124C0.52,-0.165 0.498,-0.197 0.483,-0.222C0.468,-0.246 0.456,-0.265 0.447,-0.278C0.438,-0.291 0.43,-0.301 0.425,-0.307C0.419,-0.313 0.412,-0.318 0.404,-0.322L0.394,-0.327L0.394,-0.331C0.426,-0.333 0.453,-0.34 0.476,-0.352C0.499,-0.364 0.518,-0.379 0.532,-0.397C0.547,-0.415 0.558,-0.435 0.564,-0.456C0.571,-0.476 0.574,-0.497 0.574,-0.517C0.574,-0.535 0.571,-0.555 0.564,-0.576C0.557,-0.597 0.545,-0.617 0.528,-0.635C0.51,-0.654 0.487,-0.669 0.458,-0.682C0.429,-0.694 0.392,-0.7 0.347,-0.7L0.12,-0.7ZM0.211,-0.656L0.312,-0.656C0.338,-0.656 0.361,-0.652 0.381,-0.645C0.402,-0.638 0.419,-0.627 0.434,-0.615C0.449,-0.602 0.46,-0.586 0.467,-0.568C0.475,-0.55 0.479,-0.53 0.479,-0.509C0.479,-0.491 0.475,-0.473 0.468,-0.455C0.461,-0.436 0.451,-0.42 0.437,-0.405C0.423,-0.39 0.406,-0.377 0.385,-0.368C0.365,-0.359 0.341,-0.354 0.314,-0.354L0.211,-0.354L0.211,-0.656Z" style="fill-rule:nonzero;"/>
        </g>
        <g transform="matrix(119.904,0,0,142.602,257.674,99.8217)">
            <path d="M0.03,-0.7L0.323,0L0.383,0L0.667,-0.7L0.615,-0.7L0.382,-0.124L0.378,-0.124L0.138,-0.7L0.03,-0.7Z" style="fill-rule:nonzero;"/>
        </g>
        <g transform="matrix(119.904,0,0,142.602,341.247,99.8217)">
            <path d="M0.12,-0.7L0.12,0L0.572,0L0.572,-0.055L0.211,-0.055L0.211,-0.348L0.521,-0.348L0.521,-0.394L0.211,-0.394L0.211,-0.645L0.572,-0.645L0.572,-0.7L0.12,-0.7Z" style="fill-rule:nonzero;"/>
        </g>
        <g transform="matrix(119.904,0,0,142.602,413.429,99.8217)">
            <path d="M0.12,-0.7L0.12,0L0.211,0L0.211,-0.309L0.255,-0.309C0.274,-0.309 0.289,-0.307 0.302,-0.304C0.314,-0.301 0.325,-0.295 0.335,-0.287C0.346,-0.279 0.355,-0.269 0.364,-0.256C0.372,-0.243 0.383,-0.228 0.395,-0.209L0.474,-0.092C0.484,-0.077 0.494,-0.063 0.503,-0.05C0.513,-0.037 0.523,-0.027 0.534,-0.018C0.546,-0.009 0.558,-0.001 0.573,0.004C0.587,0.009 0.604,0.012 0.624,0.012C0.639,0.012 0.651,0.011 0.66,0.01C0.669,0.009 0.679,0.005 0.688,0L0.688,-0.037C0.685,-0.036 0.681,-0.036 0.678,-0.035L0.668,-0.035C0.654,-0.035 0.642,-0.037 0.631,-0.041C0.62,-0.045 0.61,-0.051 0.601,-0.059C0.592,-0.066 0.583,-0.076 0.574,-0.086C0.565,-0.098 0.557,-0.11 0.547,-0.124C0.52,-0.165 0.498,-0.197 0.483,-0.222C0.468,-0.246 0.456,-0.265 0.447,-0.278C0.438,-0.291 0.43,-0.301 0.425,-0.307C0.419,-0.313 0.412,-0.318 0.404,-0.322L0.394,-0.327L0.394,-0.331C0.426,-0.333 0.453,-0.34 0.476,-0.352C0.499,-0.364 0.518,-0.379 0.532,-0.397C0.547,-0.415 0.558,-0.435 0.564,-0.456C0.571,-0.476 0.574,-0.497 0.574,-0.517C0.574,-0.535 0.571,-0.555 0.564,-0.576C0.557,-0.597 0.545,-0.617 0.528,-0.635C0.51,-0.654 0.487,-0.669 0.458,-0.682C0.429,-0.694 0.392,-0.7 0.347,-0.7L0.12,-0.7ZM0.211,-0.656L0.312,-0.656C0.338,-0.656 0.361,-0.652 0.381,-0.645C0.402,-0.638 0.419,-0.627 0.434,-0.615C0.449,-0.602 0.46,-0.586 0.467,-0.568C0.475,-0.55 0.479,-0.53 0.479,-0.509C0.479,-0.491 0.475,-0.473 0.468,-0.455C0.461,-0.436 0.451,-0.42 0.437,-0.405C0.423,-0.39 0.406,-0.377 0.385,-0.368C0.365,-0.359 0.341,-0.354 0.314,-0.354L0.211,-0.354L0.211,-0.656Z" style="fill-rule:nonzero;"/>
        </g>
    </g>
    <rect x="189" y="98" width="311" height="2" style="fill:rgb(20,160,189);"/>
</svg>
